<svg width="58" height="58" viewBox="0 0 58 58" fill="none" xmlns="http://www.w3.org/2000/svg">
<path d="M24.1534 11.1982C24.2807 11.1976 24.4079 11.197 24.539 11.1963C24.959 11.1947 25.379 11.1948 25.799 11.1951C26.0918 11.1946 26.3846 11.1941 26.6774 11.1935C27.2911 11.1926 27.9048 11.1927 28.5185 11.1933C29.3031 11.194 30.0877 11.192 30.8723 11.1892C31.4771 11.1874 32.082 11.1873 32.6868 11.1877C32.976 11.1877 33.2652 11.187 33.5543 11.1858C33.9597 11.1844 34.365 11.1852 34.7704 11.1865C34.8888 11.1856 35.0071 11.1847 35.129 11.1838C36.2476 11.1921 37.1994 11.4745 38.1581 12.0431C38.2358 12.088 38.3135 12.1329 38.3935 12.1792C38.6663 12.3381 38.9376 12.4996 39.2087 12.6615C39.3218 12.7286 39.4349 12.7958 39.5514 12.8649C39.9197 13.0841 40.2871 13.3047 40.6542 13.5258C40.7715 13.5962 40.8887 13.6665 41.0096 13.739C42.2604 14.5 43.0761 15.2601 43.6718 16.6328C43.795 17.441 43.8492 18.3286 43.6368 19.1229C43.5979 20.146 44.6128 20.9947 45.2663 21.7068C45.3987 21.8518 45.3987 21.8518 45.5338 21.9997C46.8835 23.414 48.0835 23.9688 50.0379 24.0573C51.2375 24.0773 52.4428 24.0281 53.6374 23.9154C54.5951 23.8316 55.3216 23.9153 56.1282 24.4613C56.9295 25.2023 57.487 25.9012 57.596 27.0202C57.6286 28.196 57.3137 29.1124 56.5022 29.9764C55.6405 30.7107 54.7144 30.9145 53.6095 30.9204C53.5253 30.921 53.4411 30.9216 53.3543 30.9222C53.0769 30.9239 52.7994 30.9248 52.522 30.9254C52.3791 30.9259 52.3791 30.9259 52.2332 30.9264C51.7287 30.9282 51.2241 30.9293 50.7195 30.9298C50.201 30.9305 49.6825 30.9334 49.164 30.9368C48.7629 30.939 48.3619 30.9396 47.9609 30.9398C47.7698 30.9401 47.5788 30.9411 47.3878 30.9427C45.5406 30.9568 44.3833 30.6948 43.0348 29.386C42.8743 29.2238 42.7144 29.0611 42.5551 28.8979C42.4697 28.8116 42.3843 28.7252 42.2963 28.6363C42.0265 28.3636 41.7575 28.0902 41.4887 27.8166C41.132 27.4536 40.7746 27.0914 40.4167 26.7297C40.3348 26.6458 40.253 26.562 40.1687 26.4757C40.093 26.3992 40.0174 26.3228 39.9394 26.244C39.8729 26.1763 39.8064 26.1086 39.738 26.0388C39.5733 25.8686 39.5733 25.8686 39.3279 25.8942C39.1561 26.099 39.1561 26.099 38.9835 26.3701C38.9143 26.4739 38.8451 26.5778 38.7738 26.6848C38.6994 26.7984 38.625 26.912 38.5484 27.0291C38.472 27.1447 38.3956 27.2602 38.3169 27.3793C38.1551 27.6245 37.9938 27.87 37.8329 28.1157C37.5858 28.4925 37.337 28.8681 37.088 29.2436C36.9314 29.4814 36.775 29.7193 36.6186 29.9573C36.5437 30.0702 36.4689 30.1831 36.3917 30.2994C36.3233 30.4044 36.2548 30.5094 36.1843 30.6175C36.1236 30.7099 36.0629 30.8023 36.0004 30.8975C35.8426 31.1464 35.8426 31.1464 35.8707 31.4973C36.1059 31.7392 36.3405 31.9609 36.5935 32.1828C36.737 32.3116 36.8804 32.4406 37.0237 32.5697C37.0928 32.6317 37.1619 32.6936 37.2331 32.7574C37.4545 32.9588 37.6661 33.1681 37.875 33.3823C38.145 33.6576 38.4245 33.9134 38.7169 34.1647C39.1733 34.5576 39.5937 34.9792 40.0157 35.4085C40.2621 35.6506 40.516 35.873 40.7808 36.0945C41.3357 36.5705 41.8361 37.1144 42.0698 37.8156C42.0878 38.0994 42.0988 38.3836 42.1062 38.6679C42.1086 38.7556 42.111 38.8433 42.1135 38.9337C42.1212 39.2294 42.128 39.5251 42.1346 39.8208C42.137 39.9245 42.1395 40.0281 42.142 40.1349C42.2046 42.8148 42.2197 45.495 42.2242 48.1755C42.2253 48.7361 42.2279 49.2967 42.2316 49.8573C42.2362 50.5477 42.2384 51.238 42.2389 51.9284C42.2395 52.1876 42.2409 52.4468 42.2431 52.706C42.246 53.0656 42.2459 53.425 42.2451 53.7846C42.2474 53.9409 42.2474 53.9409 42.2497 54.1002C42.24 55.266 41.8115 56.182 41.0137 57.0197C40.2929 57.6629 39.402 57.9108 38.4562 58C37.2664 57.8992 36.3632 57.5488 35.5466 56.6691C34.7807 55.7267 34.6251 54.7526 34.6403 53.5637C34.6404 53.4383 34.6405 53.3129 34.6407 53.1838C34.6411 52.9133 34.6423 52.6429 34.6442 52.3724C34.647 51.9439 34.6471 51.5154 34.6464 51.0869C34.6449 49.8691 34.647 48.6514 34.6536 47.4337C34.6575 46.6873 34.6574 45.9409 34.6547 45.1945C34.6545 44.9108 34.6558 44.6271 34.6587 44.3434C34.6628 43.9465 34.6616 43.5499 34.6594 43.153C34.663 42.9784 34.663 42.9784 34.6668 42.8003C34.6555 42.0432 34.4812 41.6583 33.9483 41.1187C33.8746 41.0515 33.8008 40.9844 33.7249 40.9152C33.6458 40.8431 33.5667 40.771 33.4852 40.6967C33.335 40.5629 33.1829 40.4311 33.0296 40.3009C32.7398 40.0539 32.4574 39.7997 32.1751 39.5442C31.9764 39.3654 31.7777 39.1865 31.579 39.0078C31.4924 38.9295 31.4057 38.8513 31.3164 38.7707C31.1956 38.6631 31.1956 38.6631 31.0724 38.5532C31.0029 38.491 30.9334 38.4288 30.8619 38.3646C30.5587 38.1193 30.2367 37.9091 29.91 37.6964C29.8161 37.812 29.7222 37.9275 29.6255 38.0466C29.5636 38.1228 29.5016 38.1991 29.4378 38.2776C29.2987 38.4488 29.1597 38.62 29.0206 38.7912C28.667 39.2266 28.313 39.6619 27.9584 40.0965C27.3409 40.8538 26.7271 41.6133 26.125 42.383C25.7247 42.8938 25.3242 43.4043 24.918 43.9104C24.7967 44.0621 24.7967 44.0621 24.673 44.2168C24.0261 44.937 24.0261 44.937 23.5567 45.0124C23.204 45.0298 22.8541 45.0315 22.501 45.0283C22.2997 45.0292 22.2997 45.0292 22.0943 45.0302C21.6504 45.0317 21.2066 45.0297 20.7627 45.0276C20.4537 45.0276 20.1447 45.0278 19.8357 45.0281C19.1876 45.0283 18.5395 45.0268 17.8914 45.0241C17.1447 45.0209 16.398 45.0207 15.6513 45.0221C14.9307 45.0234 14.2101 45.0226 13.4894 45.0209C13.184 45.0204 12.8785 45.0204 12.5731 45.0208C12.1448 45.0212 11.7166 45.0192 11.2884 45.0166C11.1006 45.0174 11.1006 45.0174 10.909 45.0182C9.69618 45.0061 8.62004 44.7717 7.73626 43.8955C6.89829 42.8564 6.65774 41.8837 6.78255 40.5575C7.00392 39.6494 7.45467 38.8937 8.22569 38.3558C9.11583 37.8288 9.97122 37.656 10.9914 37.6905C11.186 37.6948 11.3806 37.699 11.5752 37.7032C11.677 37.7058 11.7787 37.7084 11.8836 37.7111C12.4293 37.7235 12.9751 37.7271 13.5209 37.732C14.2125 37.7384 14.9037 37.7475 15.5951 37.7679C18.2046 37.989 18.2046 37.989 20.552 37.1487C20.9274 36.7445 21.1883 36.3126 21.4247 35.8165C21.6703 35.3512 22.0204 34.9711 22.3623 34.5745C22.4894 34.4185 22.6159 34.262 22.7418 34.1051C22.993 33.7936 23.2456 33.4834 23.499 33.1737C23.6194 33.0248 23.7397 32.8758 23.8599 32.7267C23.9155 32.6594 23.9711 32.5921 24.0284 32.5229C24.328 32.1479 24.5173 31.8621 24.5454 31.3781C24.5074 31.179 24.4673 30.9804 24.4262 30.782C24.2444 28.1891 24.9074 26.5099 26.3932 24.419C26.5407 24.2099 26.6882 24.0008 26.8356 23.7917C26.9104 23.6859 26.9852 23.5801 27.0623 23.4711C27.4222 22.9613 27.7793 22.4494 28.1367 21.9378C28.8831 20.8697 29.635 19.8056 30.3869 18.7414C29.6382 18.673 28.8895 18.6051 28.1407 18.5377C27.8862 18.5147 27.6317 18.4915 27.3772 18.4683C27.0106 18.4348 26.6439 18.4018 26.2773 18.3689C26.1642 18.3584 26.0512 18.348 25.9347 18.3373C25.8274 18.3277 25.7201 18.3182 25.6095 18.3083C25.516 18.2998 25.4226 18.2914 25.3263 18.2826C25.226 18.2767 25.1256 18.2707 25.0223 18.2645C24.8169 18.2465 24.8169 18.2465 24.6074 18.2281C24.0737 18.2745 23.9311 18.4226 23.5629 18.8042C23.5063 18.8615 23.4498 18.9189 23.3916 18.978C23.2696 19.1024 23.1486 19.2277 23.0284 19.3539C22.8377 19.5542 22.6445 19.7519 22.4505 19.9492C22.1085 20.2977 21.7688 20.6484 21.4299 20.9999C20.8887 21.5611 20.3456 22.1204 19.7996 22.6768C19.6103 22.8707 19.4232 23.0665 19.236 23.2624C18.4875 24.035 17.831 24.5965 16.7481 24.7654C15.648 24.7543 14.7358 24.5488 13.9354 23.7484C13.2307 22.7795 13.1191 21.9643 13.2201 20.768C13.4168 20.0358 13.7578 19.6266 14.293 19.099C14.4966 18.8949 14.7002 18.6907 14.9037 18.4865C15.4924 17.8958 16.0815 17.3054 16.6707 16.7152C17.026 16.3593 17.3812 16.0032 17.7361 15.647C18.0813 15.3005 18.4267 14.9543 18.7724 14.6083C18.9032 14.4774 19.0338 14.3463 19.1643 14.2151C19.8008 13.5756 20.4375 12.9423 21.1251 12.3569C21.4042 12.1184 21.673 11.8692 21.9423 11.6198C22.6189 11.1547 23.3671 11.1962 24.1534 11.1982ZM21.9603 14.0293C21.856 14.134 21.7517 14.2387 21.6443 14.3465C21.5325 14.4599 21.4207 14.5733 21.3089 14.6867C21.192 14.8044 21.0751 14.922 20.958 15.0395C20.651 15.3482 20.3446 15.6574 20.0384 15.9669C19.5495 16.461 19.0598 16.9543 18.5696 17.4471C18.4001 17.6179 18.2309 17.7892 18.0618 17.9604C17.522 18.5042 16.9769 19.0318 16.3941 19.5294C16.146 19.7417 15.9109 19.9647 15.6789 20.1943C15.6017 20.2698 15.5246 20.3452 15.4451 20.423C15.0487 20.8743 14.9598 21.2391 14.979 21.8456C15.0238 22.2029 15.1324 22.4029 15.3659 22.6755C15.7588 22.9433 16.0079 23.0304 16.4836 23.048C17.5413 22.7198 18.3548 21.6034 19.1109 20.8328C19.2281 20.7142 19.3453 20.5957 19.4625 20.4772C19.9561 19.9787 20.4492 19.4797 20.9405 18.9789C21.2428 18.6708 21.5462 18.3639 21.8505 18.0578C21.9654 17.9416 22.08 17.825 22.1941 17.708C22.3534 17.5446 22.5145 17.3828 22.6755 17.221C22.8118 17.0827 22.8118 17.0827 22.9508 16.9415C23.411 16.5731 23.882 16.4374 24.4668 16.471C24.5627 16.476 24.6587 16.4809 24.7576 16.486C24.86 16.4928 24.9624 16.4996 25.0679 16.5066C25.2313 16.516 25.2313 16.516 25.398 16.5256C26.5796 16.5966 27.7596 16.6919 28.9388 16.7952C29.3045 16.827 29.6704 16.8574 30.0362 16.8878C30.272 16.9081 30.5078 16.9285 30.7436 16.949C30.8514 16.9578 30.9592 16.9667 31.0702 16.9757C31.6642 17.0292 32.2086 17.1077 32.7712 17.3108C32.9484 17.6654 32.9389 17.867 32.8904 18.2645C32.7028 18.6309 32.4659 18.9577 32.2249 19.2903C32.2207 19.2961 32.2165 19.3019 32.2123 19.3077C32.1075 19.4566 32.1075 19.4566 32.0005 19.6085C31.7824 19.9169 31.5619 20.2235 31.3406 20.5296C31.2744 20.6214 31.2082 20.7132 31.1401 20.8079C30.885 21.1615 30.6296 21.5148 30.3729 21.8673C29.8357 22.6067 29.3198 23.3594 28.8075 24.1162C28.395 24.7233 27.9664 25.3148 27.5258 25.9017C26.4971 27.2817 25.9586 28.5525 26.0952 30.3051C26.1719 30.6868 26.2956 31.0227 26.4528 31.3781C26.4906 31.4733 26.5284 31.5686 26.5674 31.6668C26.9506 32.5418 27.5403 33.1266 28.241 33.7623C28.3171 33.8317 28.3932 33.901 28.4715 33.9724C28.7653 34.2332 29.0648 34.4869 29.3646 34.7407C29.367 34.7426 29.3693 34.7446 29.3716 34.7466C30.2514 35.4923 31.1141 36.2506 31.9559 37.039C32.3827 37.4387 32.8147 37.8302 33.2573 38.2124C33.6381 38.5436 34.0112 38.8835 34.3852 39.2224C34.6529 39.4616 34.9256 39.693 35.2001 39.9242C35.6909 40.3515 36.0198 40.7662 36.2284 41.392C36.2396 41.5684 36.2442 41.7452 36.2448 41.9219C36.2455 42.0304 36.2461 42.1388 36.2468 42.2506C36.2469 42.3693 36.247 42.488 36.2472 42.6103C36.2478 42.7356 36.2484 42.8609 36.249 42.9899C36.2503 43.2623 36.2513 43.5348 36.2521 43.8072C36.2535 44.2386 36.2558 44.6701 36.2584 45.1015C36.2658 46.3284 36.2722 47.5553 36.2762 48.7823C36.2787 49.5325 36.2829 50.2827 36.2882 51.0328C36.2899 51.3185 36.2909 51.6042 36.2913 51.8899C36.2919 52.2903 36.2947 52.6906 36.2979 53.0909C36.2976 53.2084 36.2972 53.3259 36.2968 53.447C36.3057 54.1857 36.3514 54.9395 36.8656 55.5217C37.4191 56.0108 37.8681 56.2032 38.5977 56.1745C39.1432 56.1046 39.4606 55.9358 39.8676 55.5738C40.418 54.8409 40.4513 54.1579 40.44 53.2729C40.4399 53.1491 40.4398 53.0253 40.4397 52.8978C40.4387 52.4824 40.435 52.0672 40.4306 51.6519C40.4266 51.2017 40.4226 50.7516 40.4187 50.3015C40.4166 50.059 40.4143 49.8165 40.4117 49.5741C40.3997 48.4381 40.4034 47.3034 40.4214 46.1676C40.435 45.3079 40.4425 44.4483 40.4461 43.5885C40.4487 43.0578 40.4544 42.5276 40.4676 41.997C40.6411 39.4643 40.6411 39.4643 39.6561 37.2548C39.3544 36.9794 39.0458 36.7396 38.7017 36.5195C38.4278 36.3427 38.1949 36.1303 37.957 35.9082C37.8857 35.848 37.8144 35.7877 37.7409 35.7256C37.4512 35.4735 37.1866 35.1986 36.9176 34.9247C36.6952 34.7062 36.4645 34.5022 36.2284 34.2988C35.8441 33.9677 35.4865 33.6197 35.1317 33.2575C34.8236 32.9555 34.496 32.6782 34.1659 32.4007C33.8845 32.1394 33.7381 31.9247 33.6664 31.5458C33.7548 30.9322 34.0783 30.5126 34.4225 30.0062C34.4952 29.8964 34.568 29.7867 34.643 29.6736C34.8769 29.3218 35.113 28.9715 35.3492 28.6212C35.5017 28.3921 35.6542 28.1628 35.8065 27.9334C36.6012 26.74 37.4129 25.5598 38.2387 24.3877C38.9261 23.409 39.5878 22.4141 40.2438 21.4143C40.4429 21.1108 40.643 20.808 40.843 20.5052C40.9709 20.3108 41.0987 20.1164 41.2265 19.9219C41.3155 19.7872 41.3155 19.7872 41.4063 19.6499C41.4606 19.5669 41.5149 19.4839 41.5708 19.3984C41.6184 19.326 41.6661 19.2535 41.7152 19.1788C42.0353 18.6309 42.0136 18.0437 41.9506 17.43C41.5928 16.1536 40.3289 15.4889 39.2534 14.8744C39.1384 14.8077 39.0234 14.7411 38.9049 14.6724C38.6754 14.5396 38.4458 14.4073 38.2158 14.2754C37.9348 14.1136 37.6552 13.9497 37.3763 13.7843C37.2296 13.6981 37.0829 13.6119 36.9362 13.5258C36.8119 13.4526 36.6875 13.3795 36.5595 13.3041C35.8775 12.9627 35.1846 13.0002 34.4379 12.998C34.2581 12.9969 34.2581 12.9969 34.0746 12.9957C33.6788 12.9933 33.283 12.9919 32.8871 12.9907C32.7518 12.9902 32.6164 12.9898 32.477 12.9893C31.7612 12.9868 31.0453 12.9851 30.3295 12.984C29.5902 12.9826 28.8509 12.9785 28.1115 12.9738C27.5428 12.9707 26.9741 12.9697 26.4053 12.9693C26.1327 12.9687 25.8601 12.9673 25.5876 12.9651C25.2063 12.9622 24.8252 12.9623 24.4439 12.9631C24.2753 12.9608 24.2753 12.9608 24.1032 12.9585C23.129 12.9662 22.6376 13.3454 21.9603 14.0293ZM42.4275 21.1257C42.2115 21.3995 42.2115 21.3995 41.9869 21.7516C41.9017 21.8806 41.8164 22.0097 41.7285 22.1427C41.6386 22.2806 41.5487 22.4184 41.4589 22.5562C41.3681 22.6941 41.2773 22.832 41.1864 22.9698C40.9636 23.3083 40.7415 23.6473 40.5201 23.9868C40.6883 24.368 40.8893 24.6246 41.1829 24.9189C41.313 25.0502 41.313 25.0502 41.4458 25.1841C41.5864 25.324 41.5864 25.324 41.7299 25.4667C41.8263 25.5634 41.9228 25.6601 42.0221 25.7597C42.2261 25.9638 42.4303 26.1676 42.6348 26.3711C42.9478 26.6828 43.2596 26.9958 43.5712 27.309C43.7695 27.5071 43.9679 27.7052 44.1663 27.9032C44.2596 27.9969 44.3529 28.0907 44.449 28.1873C44.5365 28.274 44.624 28.3608 44.7141 28.4502C44.7907 28.5266 44.8673 28.603 44.9462 28.6817C45.4495 29.1167 45.8346 29.1437 46.497 29.1476C46.6241 29.1488 46.6241 29.1488 46.7539 29.1501C47.0337 29.1523 47.3134 29.1528 47.5933 29.1531C47.7884 29.1538 47.9835 29.1546 48.1786 29.1555C48.5875 29.1569 48.9965 29.1573 49.4055 29.1572C49.9282 29.1572 50.4509 29.1604 50.9736 29.1645C51.3766 29.1672 51.7797 29.1677 52.1828 29.1675C52.3754 29.1678 52.568 29.1689 52.7607 29.1707C53.0309 29.1731 53.3009 29.1724 53.5711 29.1709C53.7245 29.1713 53.8779 29.1716 54.036 29.172C54.6975 29.0817 55.1343 28.8173 55.5932 28.3232C55.8463 27.7765 55.9047 27.3205 55.7794 26.7287C55.4907 26.2211 55.1271 25.8787 54.5873 25.6558C54.26 25.6193 54.26 25.6193 53.8988 25.6235C53.7604 25.6223 53.6219 25.621 53.4792 25.6198C53.3301 25.6195 53.1809 25.6193 53.0273 25.619C52.7923 25.6168 52.5574 25.6145 52.3225 25.6122C51.7439 25.6068 51.1652 25.604 50.5865 25.6014C50.2617 25.5999 49.9368 25.5974 49.612 25.594C49.3063 25.5909 49.0006 25.5892 48.6949 25.5892C47.7412 25.5783 47.1094 25.4782 46.4007 24.8022C46.3224 24.7282 46.2442 24.6542 46.1637 24.578C46.0814 24.4985 45.9992 24.4189 45.9145 24.337C45.8279 24.2546 45.7413 24.1721 45.652 24.0872C44.8688 23.3373 44.1038 22.5687 43.3471 21.792C43.2614 21.7049 43.1757 21.6178 43.0873 21.528C43.0116 21.4503 42.9358 21.3725 42.8578 21.2924C42.6783 21.0996 42.6783 21.0996 42.4275 21.1257ZM25.4991 33.5239C25.3253 33.6944 25.3253 33.6944 25.1485 33.9211C25.0794 34.0059 25.0104 34.0906 24.9392 34.1779C24.8658 34.2694 24.7924 34.361 24.7168 34.4553C24.6415 34.548 24.5661 34.6408 24.4885 34.7364C24.3375 34.9225 24.1867 35.1088 24.0362 35.2953C23.7779 35.6152 23.5173 35.9331 23.2564 36.2509C23.1736 36.3524 23.0907 36.4538 23.0054 36.5583C22.8316 36.7709 22.6574 36.9832 22.4829 37.1953C21.9828 37.8039 21.4916 38.4165 21.0179 39.0459C20.8498 39.2462 20.8498 39.2462 20.6114 39.3654C20.2811 39.3775 19.9538 39.3825 19.6236 39.3823C19.5214 39.3827 19.4192 39.3831 19.3139 39.3836C19.0915 39.3844 18.8691 39.3851 18.6467 39.3855C18.2944 39.3864 17.9421 39.3882 17.5898 39.3904C16.588 39.3967 15.5861 39.4024 14.5843 39.4042C13.9718 39.4055 13.3593 39.409 12.7469 39.4139C12.5137 39.4154 12.2804 39.416 12.0472 39.4158C11.7202 39.4155 11.3933 39.4181 11.0662 39.4214C10.9704 39.4206 10.8746 39.4198 10.7758 39.419C10.1074 39.4301 9.71917 39.5813 9.16683 39.9615C8.76277 40.3974 8.59087 40.706 8.53351 41.3026C8.59094 41.9918 8.85051 42.4015 9.3531 42.8673C9.75477 43.1351 10.0633 43.1955 10.535 43.2026C10.6989 43.2054 10.6989 43.2054 10.8661 43.2083C11.0456 43.2105 11.0456 43.2105 11.2287 43.2127C11.3549 43.2146 11.4811 43.2165 11.6112 43.2185C12.7756 43.2353 13.94 43.2446 15.1045 43.2518C15.8867 43.2567 16.6687 43.2639 17.4508 43.2767C18.2072 43.2891 18.9635 43.2956 19.72 43.298C20.0079 43.2999 20.2959 43.3038 20.5838 43.3099C22.1273 43.4245 22.1273 43.4245 23.5243 42.9212C23.7977 42.6218 23.9929 42.342 24.1878 41.9881C24.2975 41.8478 24.4096 41.7094 24.5249 41.5736C24.6202 41.4498 24.7155 41.3259 24.8136 41.1983C25.2924 40.5805 25.7796 39.9707 26.274 39.3654C26.7817 38.7423 27.2874 38.1177 27.7865 37.4878C27.8684 37.3854 27.8684 37.3854 27.9519 37.281C28.2076 36.9566 28.4336 36.6458 28.5987 36.2658C28.4001 36.0844 28.2014 35.9031 28.0026 35.7219C27.943 35.6676 27.8835 35.6132 27.8221 35.5572C27.4747 35.2411 27.1232 34.9313 26.7658 34.6266C26.4776 34.378 26.229 34.1263 25.9909 33.8294C25.9073 33.7286 25.8237 33.6278 25.7375 33.5239C25.6589 33.5239 25.5802 33.5239 25.4991 33.5239Z" fill="black"/>
<path d="M44.5649 0.00620742C46.2002 -0.0656712 47.7181 0.489929 48.9856 1.5043C50.3001 2.72188 51.005 4.28759 51.1254 6.07587C51.1477 7.92257 50.4805 9.44908 49.2194 10.7685C47.7792 12.1462 46.162 12.4975 44.2376 12.4599C42.5945 12.3887 41.1681 11.5332 40.0516 10.3527C39.1229 9.1717 38.4984 7.52791 38.5796 6.00555C38.8082 4.21841 39.4233 2.57211 40.8591 1.42234C41.99 0.573592 43.1446 0.121213 44.5649 0.00620742ZM41.2577 3.61615C40.6596 4.43119 40.2977 5.51865 40.3557 6.53689C40.5754 7.91414 41.0799 8.96133 42.1742 9.83762C43.2898 10.6056 44.4811 10.9232 45.84 10.687C47.1467 10.3226 48.1112 9.57195 48.8133 8.42149C49.3399 7.39087 49.5185 6.18868 49.204 5.06115C48.735 3.8125 48.0175 2.8816 46.8309 2.24519C44.7675 1.32355 42.7192 1.93215 41.2577 3.61615Z" fill="black"/>
<path d="M7.77815 26.5632C7.90937 26.5623 7.90937 26.5623 8.04324 26.5613C8.33196 26.5598 8.62059 26.5608 8.90931 26.562C9.11033 26.5618 9.31136 26.5614 9.51238 26.561C9.93358 26.5605 10.3548 26.5612 10.776 26.5629C11.3153 26.5649 11.8545 26.5638 12.3938 26.5616C12.809 26.5603 13.2241 26.5607 13.6392 26.5617C13.838 26.5619 14.0368 26.5616 14.2356 26.5608C14.5139 26.5599 14.792 26.5612 15.0702 26.5632C15.193 26.5622 15.193 26.5622 15.3182 26.561C15.8279 26.5678 16.1578 26.6461 16.5581 26.9672C16.6922 27.3695 16.6922 27.3695 16.6773 27.8017C16.3611 28.2202 16.1812 28.3798 15.6597 28.4734C15.4957 28.4769 15.3316 28.4772 15.1675 28.4748C15.0775 28.4759 14.9875 28.4769 14.8948 28.478C14.5983 28.4806 14.3021 28.4789 14.0057 28.4769C13.7992 28.4773 13.5927 28.4779 13.3862 28.4786C12.954 28.4795 12.5219 28.4782 12.0896 28.4754C11.5357 28.472 10.9819 28.474 10.428 28.4776C10.0019 28.4797 9.57572 28.479 9.14954 28.4775C8.94531 28.4771 8.74106 28.4776 8.53683 28.479C8.25139 28.4805 7.96623 28.4782 7.68082 28.4748C7.55437 28.4767 7.55437 28.4767 7.42537 28.4785C6.98811 28.4691 6.81169 28.425 6.48798 28.1219C6.3057 27.8017 6.3057 27.8017 6.3057 27.3695C6.53797 26.5856 7.0354 26.5567 7.77815 26.5632Z" fill="black"/>
<path d="M5.25853 32.1896C5.34714 32.1886 5.43575 32.1876 5.52705 32.1866C5.8209 32.1837 6.11475 32.1817 6.40861 32.18C6.55908 32.179 6.55908 32.179 6.71258 32.178C7.24353 32.1749 7.77446 32.1725 8.30541 32.1708C8.85384 32.1688 9.40218 32.1635 9.95058 32.1574C10.3722 32.1534 10.7939 32.152 11.2156 32.1514C11.4177 32.1506 11.6199 32.1488 11.822 32.1459C12.1051 32.1421 12.3881 32.1421 12.6712 32.143C12.7962 32.1401 12.7962 32.1401 12.9237 32.1371C13.3775 32.1429 13.5693 32.206 13.932 32.4879C14.1738 32.8086 14.1738 32.8086 14.1813 33.2408C14.0387 33.6935 13.984 33.7784 13.5777 34.0008C13.2715 34.0353 12.9945 34.0497 12.6885 34.047C12.5553 34.048 12.5553 34.048 12.4193 34.0489C12.1262 34.0505 11.8331 34.0495 11.5399 34.0483C11.3359 34.0485 11.132 34.0489 10.928 34.0493C10.5007 34.0498 10.0734 34.0491 9.64607 34.0474C9.09846 34.0454 8.55091 34.0465 8.00329 34.0487C7.58214 34.05 7.161 34.0496 6.73985 34.0486C6.53794 34.0484 6.33603 34.0487 6.13412 34.0495C5.85187 34.0504 5.56973 34.049 5.28749 34.047C5.20412 34.0478 5.12075 34.0485 5.03485 34.0492C4.67402 34.0445 4.4289 34.0179 4.11126 33.8405C3.83012 33.5482 3.81021 33.3281 3.80221 32.9278C4.14895 32.1848 4.49956 32.1942 5.25853 32.1896Z" fill="black"/>
<path d="M1.36179 12.2538C1.45293 12.2528 1.54408 12.2518 1.63798 12.2507C1.93952 12.2479 2.24099 12.2478 2.54255 12.248C2.75205 12.2471 2.96154 12.2462 3.17104 12.2452C3.61029 12.2436 4.04951 12.2434 4.48876 12.2441C5.05178 12.2448 5.61467 12.2412 6.17766 12.2364C6.61037 12.2333 7.04305 12.2329 7.47577 12.2334C7.68334 12.2332 7.89091 12.232 8.09847 12.2299C8.38877 12.2273 8.67882 12.2284 8.96912 12.2305C9.05491 12.2289 9.1407 12.2274 9.22908 12.2257C9.67285 12.2332 9.8505 12.274 10.1781 12.5832C10.359 12.8999 10.359 12.8999 10.3515 13.2725C10.239 13.6174 10.171 13.7617 9.88211 13.9729C9.46451 14.1121 9.13524 14.1081 8.69446 14.1094C8.56849 14.11 8.56849 14.11 8.43998 14.1106C8.16226 14.1117 7.88454 14.112 7.60681 14.1121C7.41363 14.1125 7.22045 14.1129 7.02728 14.1133C6.62221 14.114 6.21715 14.1142 5.81208 14.1142C5.29349 14.1141 4.77491 14.1158 4.25633 14.1178C3.85726 14.1192 3.4582 14.1194 3.05913 14.1193C2.86797 14.1195 2.6768 14.12 2.48564 14.1209C2.21799 14.1221 1.95038 14.1217 1.68273 14.121C1.53053 14.1212 1.37833 14.1214 1.22152 14.1215C0.833196 14.0929 0.570479 14.0303 0.225794 13.8536C-0.0119694 13.551 -0.0139718 13.3986 0.00971912 13.0117C0.219664 12.2527 0.642678 12.2509 1.36179 12.2538Z" fill="black"/>
<path d="M10.395 7.15467C10.5316 7.15321 10.5316 7.15321 10.6711 7.15172C10.9739 7.14875 11.2767 7.14678 11.5795 7.14507C11.6827 7.14443 11.7859 7.1438 11.8922 7.14314C12.4385 7.13995 12.9848 7.13764 13.531 7.13593C14.0959 7.13394 14.6607 7.1286 15.2256 7.12253C15.6593 7.11852 16.093 7.11714 16.5267 7.11647C16.735 7.11567 16.9432 7.11385 17.1514 7.111C17.4429 7.10724 17.7341 7.10722 18.0256 7.1081C18.1548 7.10517 18.1548 7.10517 18.2867 7.10218C18.7317 7.10771 18.9098 7.14696 19.2386 7.45676C19.4192 7.77373 19.4192 7.77373 19.4118 8.14628C19.2993 8.49122 19.2313 8.63554 18.9424 8.84666C18.5252 8.98572 18.195 8.98272 17.7547 8.98508C17.6287 8.98597 17.6287 8.98597 17.5002 8.98687C17.2225 8.98861 16.9448 8.98943 16.6671 8.99009C16.4739 8.99077 16.2807 8.99146 16.0875 8.99215C15.6825 8.9934 15.2774 8.99409 14.8723 8.99451C14.3537 8.99516 13.8352 8.99803 13.3166 9.00142C12.9175 9.00364 12.5185 9.00426 12.1194 9.00445C11.9282 9.00481 11.7371 9.00576 11.5459 9.00733C11.2782 9.00937 11.0106 9.00914 10.743 9.00836C10.5908 9.0088 10.4386 9.00923 10.2818 9.00968C9.84985 8.96233 9.62759 8.87245 9.28604 8.60823C9.10722 8.26549 9.10722 8.26549 9.04762 7.89295C9.39056 7.15807 9.63485 7.15911 10.395 7.15467Z" fill="black"/>
<path d="M2.25243 32.2126C2.61618 32.4245 2.70861 32.5068 2.84105 32.9129C2.84987 33.3541 2.75754 33.5359 2.49086 33.8816C2.15562 34.0492 1.86616 34.03 1.49244 34.038C1.28821 34.0447 1.28821 34.0447 1.07985 34.0515C0.702649 34.0008 0.702649 34.0008 0.419051 33.7861C0.225794 33.5239 0.225794 33.5239 0.158736 33.1067C0.225794 32.6894 0.225794 32.6894 0.434418 32.3988C1.01916 32.1177 1.61458 32.1152 2.25243 32.2126Z" fill="black"/>
<path d="M19.6576 26.6095C20.0451 26.8554 20.0451 26.8554 20.2537 27.2056C20.2537 27.6163 20.2318 27.8953 19.9999 28.2403C19.6588 28.481 19.3619 28.4539 18.9498 28.4573C18.7306 28.4629 18.7306 28.4629 18.507 28.4685C18.1079 28.3977 18.1079 28.3977 17.8173 28.123C17.631 27.8017 17.631 27.8017 17.6236 27.3695C17.7502 26.9672 17.7502 26.9672 17.9737 26.7362C18.5391 26.544 19.0678 26.5168 19.6576 26.6095Z" fill="black"/>
<path d="M6.78255 7.11061C6.92762 7.10799 7.07269 7.10538 7.22215 7.10269C7.61705 7.17766 7.61705 7.17766 7.9081 7.4566C8.09391 7.77373 8.09391 7.77373 8.08645 8.14628C7.97397 8.49122 7.90594 8.63554 7.61705 8.84666C7.05711 9.0333 6.52517 9.0279 5.96296 8.86901C5.70963 8.72744 5.70963 8.72744 5.4712 8.3698C5.4178 7.95152 5.40702 7.74178 5.66027 7.39746C6.04602 7.10284 6.30123 7.1101 6.78255 7.11061Z" fill="black"/>
<path d="M12.6017 12.2666C12.75 12.2621 12.8983 12.2577 13.0511 12.2531C13.4585 12.3039 13.4585 12.3039 13.7472 12.5223C14.0014 12.8714 13.9971 13.073 13.9354 13.496C13.7232 13.8698 13.6346 13.9539 13.2201 14.0921C12.6552 14.1376 12.0302 14.1876 11.5511 13.8536C11.3723 13.4587 11.3723 13.4587 11.3127 13.0191C11.6398 12.3025 11.836 12.2816 12.6017 12.2666Z" fill="black"/>
<path d="M21.9603 14.0293L21.6443 14.3465L21.3089 14.6867C21.192 14.8044 21.0751 14.922 20.958 15.0395C20.651 15.3482 20.3446 15.6574 20.0384 15.9669C19.5495 16.461 19.0598 16.9543 18.5696 17.4471C18.4001 17.6179 18.2309 17.7892 18.0618 17.9604C17.522 18.5042 16.9769 19.0318 16.3941 19.5294C16.146 19.7417 15.9109 19.9647 15.6789 20.1943L15.4451 20.423C15.0487 20.8743 14.9598 21.2391 14.979 21.8456C15.0238 22.2029 15.1324 22.4029 15.3659 22.6755C15.7588 22.9433 16.0079 23.0304 16.4836 23.048C17.5413 22.7198 18.3548 21.6034 19.1109 20.8328C19.2281 20.7142 19.3453 20.5957 19.4625 20.4772C19.9561 19.9787 20.4492 19.4797 20.9405 18.9789C21.2428 18.6708 21.5462 18.3639 21.8505 18.0578C21.9654 17.9416 22.08 17.825 22.1941 17.708C22.3534 17.5446 22.5145 17.3828 22.6755 17.221L22.9508 16.9415C23.411 16.5731 23.882 16.4374 24.4668 16.471L24.7576 16.486L25.0679 16.5066L25.398 16.5256C26.5796 16.5966 27.7596 16.6919 28.9388 16.7952C29.3045 16.827 29.6704 16.8574 30.0362 16.8878C30.272 16.9081 30.5078 16.9285 30.7436 16.949L31.0702 16.9757C31.6642 17.0292 32.2086 17.1077 32.7712 17.3108C32.9484 17.6654 32.9389 17.867 32.8904 18.2645C32.7028 18.6309 32.4659 18.9577 32.2249 19.2903L32.2123 19.3077L32.0005 19.6085C31.7824 19.9169 31.5619 20.2235 31.3406 20.5296L31.1401 20.8079C30.885 21.1615 30.6296 21.5148 30.3729 21.8673C29.8357 22.6067 29.3198 23.3594 28.8075 24.1162C28.395 24.7233 27.9664 25.3148 27.5258 25.9017C26.4971 27.2817 25.9586 28.5525 26.0952 30.3051C26.1719 30.6868 26.2956 31.0227 26.4528 31.3781L26.5674 31.6668C26.9506 32.5418 27.5403 33.1266 28.241 33.7623L28.4715 33.9724C28.7653 34.2332 29.0648 34.4869 29.3646 34.7407L29.3716 34.7466C30.2514 35.4923 31.1141 36.2506 31.9559 37.039C32.3827 37.4387 32.8147 37.8302 33.2573 38.2124C33.6381 38.5436 34.0112 38.8835 34.3852 39.2224C34.6529 39.4616 34.9256 39.693 35.2001 39.9242C35.6909 40.3515 36.0198 40.7662 36.2284 41.392C36.2396 41.5684 36.2442 41.7452 36.2448 41.9219L36.2468 42.2506L36.2472 42.6103L36.249 42.9899C36.2503 43.2623 36.2513 43.5348 36.2521 43.8072C36.2535 44.2386 36.2558 44.6701 36.2584 45.1015C36.2658 46.3284 36.2722 47.5553 36.2762 48.7823C36.2787 49.5325 36.2829 50.2827 36.2882 51.0328C36.2899 51.3185 36.2909 51.6042 36.2913 51.8899C36.2919 52.2903 36.2947 52.6906 36.2979 53.0909L36.2968 53.447C36.3057 54.1857 36.3514 54.9395 36.8656 55.5217C37.4191 56.0108 37.8681 56.2032 38.5977 56.1745C39.1432 56.1046 39.4606 55.9358 39.8676 55.5738C40.418 54.8409 40.4513 54.1579 40.44 53.2729L40.4397 52.8978C40.4387 52.4824 40.435 52.0672 40.4306 51.6519C40.4266 51.2017 40.4226 50.7516 40.4187 50.3015C40.4166 50.059 40.4143 49.8165 40.4117 49.5741C40.3997 48.4381 40.4034 47.3034 40.4214 46.1676C40.435 45.3079 40.4425 44.4483 40.4461 43.5885C40.4487 43.0578 40.4544 42.5276 40.4676 41.997C40.6411 39.4643 40.6411 39.4643 39.6561 37.2548C39.3544 36.9794 39.0458 36.7396 38.7017 36.5195C38.4278 36.3427 38.1949 36.1303 37.957 35.9082L37.7409 35.7256C37.4512 35.4735 37.1866 35.1986 36.9176 34.9247C36.6952 34.7062 36.4645 34.5022 36.2284 34.2988C35.8441 33.9677 35.4865 33.6197 35.1317 33.2575C34.8236 32.9555 34.496 32.6782 34.1659 32.4007C33.8845 32.1394 33.7381 31.9247 33.6664 31.5458C33.7548 30.9322 34.0783 30.5126 34.4225 30.0062L34.643 29.6736C34.8769 29.3218 35.113 28.9715 35.3492 28.6212C35.5017 28.3921 35.6542 28.1628 35.8065 27.9334C36.6012 26.74 37.4129 25.5598 38.2387 24.3877C38.9261 23.409 39.5878 22.4141 40.2438 21.4143C40.4429 21.1108 40.643 20.808 40.843 20.5052C40.9709 20.3108 41.0987 20.1164 41.2265 19.9219L41.4063 19.6499L41.5708 19.3984L41.7152 19.1788C42.0353 18.6309 42.0136 18.0437 41.9506 17.43C41.5928 16.1536 40.3289 15.4889 39.2534 14.8744L38.9049 14.6724C38.6754 14.5396 38.4458 14.4073 38.2158 14.2754C37.9348 14.1136 37.6552 13.9497 37.3763 13.7843C37.2296 13.6981 37.0829 13.6119 36.9362 13.5258L36.5595 13.3041C35.8775 12.9627 35.1846 13.0002 34.4379 12.998L34.0746 12.9957C33.6788 12.9933 33.283 12.9919 32.8871 12.9907L32.477 12.9893C31.7612 12.9868 31.0453 12.9851 30.3295 12.984C29.5902 12.9826 28.8509 12.9785 28.1115 12.9738C27.5428 12.9707 26.9741 12.9697 26.4053 12.9693C26.1327 12.9687 25.8601 12.9673 25.5876 12.9651C25.2063 12.9622 24.8252 12.9623 24.4439 12.9631L24.1032 12.9585C23.129 12.9662 22.6376 13.3454 21.9603 14.0293Z" fill="black"/>
<path d="M25.4991 33.5239C25.3253 33.6944 25.3253 33.6944 25.1485 33.9211L24.9392 34.1779L24.7168 34.4553L24.4885 34.7364C24.3375 34.9225 24.1867 35.1088 24.0362 35.2953C23.7779 35.6152 23.5173 35.9331 23.2564 36.2509L23.0054 36.5583C22.8316 36.7709 22.6574 36.9832 22.4829 37.1953C21.9828 37.8039 21.4916 38.4165 21.0179 39.0459C20.8498 39.2462 20.8498 39.2462 20.6114 39.3654C20.2811 39.3775 19.9538 39.3825 19.6236 39.3823L19.3139 39.3836C19.0915 39.3844 18.8691 39.3851 18.6467 39.3855C18.2944 39.3864 17.9421 39.3882 17.5898 39.3904C16.588 39.3967 15.5861 39.4024 14.5843 39.4042C13.9718 39.4055 13.3593 39.409 12.7469 39.4139C12.5137 39.4154 12.2804 39.416 12.0472 39.4158C11.7202 39.4155 11.3933 39.4181 11.0662 39.4214L10.7758 39.419C10.1074 39.4301 9.71917 39.5813 9.16683 39.9615C8.76277 40.3974 8.59087 40.706 8.53351 41.3026C8.59094 41.9918 8.85051 42.4015 9.3531 42.8673C9.75477 43.1351 10.0633 43.1955 10.535 43.2026L10.8661 43.2083L11.2287 43.2127L11.6112 43.2185C12.7756 43.2353 13.94 43.2446 15.1045 43.2518C15.8867 43.2567 16.6687 43.2639 17.4508 43.2767C18.2072 43.2891 18.9635 43.2956 19.72 43.298C20.0079 43.2999 20.2959 43.3038 20.5838 43.3099C22.1273 43.4245 22.1273 43.4245 23.5243 42.9212C23.7977 42.6218 23.9929 42.342 24.1878 41.9881C24.2975 41.8478 24.4096 41.7094 24.5249 41.5736L24.8136 41.1983C25.2924 40.5805 25.7796 39.9707 26.274 39.3654C26.7817 38.7423 27.2874 38.1177 27.7865 37.4878L27.9519 37.281C28.2076 36.9566 28.4336 36.6458 28.5987 36.2658C28.4001 36.0844 28.2014 35.9031 28.0026 35.7219L27.8221 35.5572C27.4747 35.2411 27.1232 34.9313 26.7658 34.6266C26.4776 34.378 26.229 34.1263 25.9909 33.8294L25.7375 33.5239H25.4991Z" fill="black"/>
<path d="M42.4275 21.1257C42.2115 21.3995 42.2115 21.3995 41.9869 21.7516L41.7285 22.1427C41.6386 22.2806 41.5487 22.4184 41.4589 22.5562C41.3681 22.6941 41.2773 22.832 41.1864 22.9698C40.9636 23.3083 40.7415 23.6473 40.5201 23.9868C40.6883 24.368 40.8893 24.6246 41.1829 24.9189L41.4458 25.1841L41.7299 25.4667L42.0221 25.7597C42.2261 25.9638 42.4303 26.1676 42.6348 26.3711C42.9478 26.6828 43.2596 26.9958 43.5712 27.309C43.7695 27.5071 43.9679 27.7052 44.1663 27.9032L44.449 28.1873L44.7141 28.4502L44.9462 28.6817C45.4495 29.1167 45.8346 29.1437 46.497 29.1476L46.7539 29.1501C47.0337 29.1523 47.3134 29.1528 47.5933 29.1531C47.7884 29.1538 47.9835 29.1546 48.1786 29.1555C48.5875 29.1569 48.9965 29.1573 49.4055 29.1572C49.9282 29.1572 50.4509 29.1604 50.9736 29.1645C51.3766 29.1672 51.7797 29.1677 52.1828 29.1675C52.3754 29.1678 52.568 29.1689 52.7607 29.1707C53.0309 29.1731 53.3009 29.1724 53.5711 29.1709L54.036 29.172C54.6975 29.0817 55.1343 28.8173 55.5932 28.3232C55.8463 27.7765 55.9047 27.3205 55.7794 26.7287C55.4907 26.2211 55.1271 25.8787 54.5873 25.6558C54.26 25.6193 54.26 25.6193 53.8988 25.6235L53.4792 25.6198L53.0273 25.619C52.7923 25.6168 52.5574 25.6145 52.3225 25.6122C51.7439 25.6068 51.1652 25.604 50.5865 25.6014C50.2617 25.5999 49.9368 25.5974 49.612 25.594C49.3063 25.5909 49.0006 25.5892 48.6949 25.5892C47.7412 25.5783 47.1094 25.4782 46.4007 24.8022L46.1637 24.578L45.9145 24.337L45.652 24.0872C44.8688 23.3373 44.1038 22.5687 43.3471 21.792L43.0873 21.528L42.8578 21.2924C42.6783 21.0996 42.6783 21.0996 42.4275 21.1257Z" fill="black"/>
<path d="M41.2577 3.61615C40.6596 4.43119 40.2977 5.51865 40.3557 6.53689C40.5754 7.91414 41.0799 8.96133 42.1742 9.83762C43.2898 10.6056 44.4811 10.9232 45.84 10.687C47.1467 10.3226 48.1112 9.57195 48.8133 8.42149C49.3399 7.39087 49.5185 6.18868 49.204 5.06115C48.735 3.8125 48.0175 2.8816 46.8309 2.24519C44.7675 1.32355 42.7192 1.93215 41.2577 3.61615Z" fill="black"/>
</svg>
