<svg width="393" height="852" viewBox="0 0 393 852" fill="none" xmlns="http://www.w3.org/2000/svg" xmlns:xlink="http://www.w3.org/1999/xlink">
<g clip-path="url(#clip0_413_278)">
<rect width="393" height="852" rx="20" fill="url(#paint0_linear_413_278)"/>
<g filter="url(#filter0_f_413_278)">
<rect x="-111.159" y="395.678" width="623" height="438" transform="rotate(15.5218 -111.159 395.678)" fill="url(#pattern0_413_278)" fill-opacity="0.05"/>
</g>
<g filter="url(#filter1_f_413_278)">
<rect x="431.785" y="553" width="623" height="438" transform="rotate(-168.247 431.785 553)" fill="url(#pattern1_413_278)" fill-opacity="0.05"/>
</g>
<rect x="0.5" y="0.5" width="392" height="31" stroke="black"/>
<path d="M36.7095 12.136L35.26 12.942V11.6225L37.3595 10.42H38.081V19H36.7095V12.136ZM42.8845 13.371C43.3568 13.371 43.7988 13.4902 44.2105 13.7285C44.6265 13.9625 44.9645 14.294 45.2245 14.723C45.4845 15.152 45.6145 15.6503 45.6145 16.218C45.6145 16.7857 45.4758 17.2905 45.1985 17.7325C44.9212 18.1745 44.5485 18.5233 44.0805 18.779C43.6168 19.0303 43.1055 19.156 42.5465 19.156C41.9745 19.156 41.4567 19.0325 40.993 18.7855C40.5337 18.5385 40.1675 18.1875 39.8945 17.7325C39.6215 17.2775 39.485 16.7423 39.485 16.127C39.485 15.4727 39.5955 14.9202 39.8165 14.4695C40.0375 14.0145 40.2953 13.605 40.59 13.241L42.865 10.42H44.4835L41.7145 13.7415C41.7968 13.6548 41.9377 13.5725 42.137 13.4945C42.3363 13.4122 42.5855 13.371 42.8845 13.371ZM42.5595 18.012C42.8802 18.012 43.1727 17.934 43.437 17.778C43.7057 17.6177 43.918 17.4053 44.074 17.141C44.2343 16.8723 44.3145 16.5755 44.3145 16.2505C44.3145 15.9255 44.2343 15.6308 44.074 15.3665C43.918 15.0978 43.7057 14.8855 43.437 14.7295C43.1727 14.5735 42.8802 14.4955 42.5595 14.4955C42.2345 14.4955 41.9377 14.5735 41.669 14.7295C41.4003 14.8855 41.1858 15.0978 41.0255 15.3665C40.8695 15.6308 40.7915 15.9255 40.7915 16.2505C40.7915 16.5755 40.8695 16.8723 41.0255 17.141C41.1858 17.4053 41.4003 17.6177 41.669 17.778C41.9377 17.934 42.2345 18.012 42.5595 18.012ZM48.0027 19.156C47.7384 19.156 47.5109 19.0628 47.3202 18.8765C47.1339 18.6858 47.0407 18.4562 47.0407 18.1875C47.0407 17.9188 47.1339 17.6892 47.3202 17.4985C47.5109 17.3078 47.7384 17.2125 48.0027 17.2125C48.2757 17.2125 48.5054 17.3078 48.6917 17.4985C48.8824 17.6892 48.9777 17.9188 48.9777 18.1875C48.9777 18.4562 48.8824 18.6858 48.6917 18.8765C48.5054 19.0628 48.2757 19.156 48.0027 19.156ZM48.0027 15.139C47.7384 15.139 47.5109 15.0458 47.3202 14.8595C47.1339 14.6688 47.0407 14.4392 47.0407 14.1705C47.0407 13.9018 47.1339 13.6722 47.3202 13.4815C47.5109 13.2908 47.7384 13.1955 48.0027 13.1955C48.2757 13.1955 48.5054 13.2908 48.6917 13.4815C48.8824 13.6722 48.9777 13.9018 48.9777 14.1705C48.9777 14.4392 48.8824 14.6688 48.6917 14.8595C48.5054 15.0458 48.2757 15.139 48.0027 15.139ZM50.1355 14.7165C50.1355 13.9582 50.2265 13.2995 50.4085 12.7405C50.5948 12.1815 50.8461 11.72 51.1625 11.356C51.4788 10.9877 51.8341 10.7147 52.2285 10.537C52.6228 10.355 53.0301 10.264 53.4505 10.264C53.8751 10.264 54.2846 10.355 54.679 10.537C55.0776 10.7147 55.433 10.9877 55.745 11.356C56.057 11.72 56.304 12.1815 56.486 12.7405C56.668 13.2995 56.759 13.9582 56.759 14.7165C56.759 15.5008 56.668 16.1725 56.486 16.7315C56.304 17.2905 56.057 17.7498 55.745 18.1095C55.433 18.4648 55.0776 18.7292 54.679 18.9025C54.2846 19.0715 53.8751 19.156 53.4505 19.156C53.0301 19.156 52.6228 19.0715 52.2285 18.9025C51.8341 18.7292 51.4788 18.4648 51.1625 18.1095C50.8461 17.7498 50.5948 17.2905 50.4085 16.7315C50.2265 16.1725 50.1355 15.5008 50.1355 14.7165ZM51.52 14.7165C51.52 15.4358 51.6045 16.036 51.7735 16.517C51.9468 16.9937 52.1786 17.349 52.469 17.583C52.7636 17.8127 53.0908 17.9275 53.4505 17.9275C53.8188 17.9275 54.146 17.8105 54.432 17.5765C54.7223 17.3425 54.952 16.9872 55.121 16.5105C55.29 16.0338 55.3745 15.4358 55.3745 14.7165C55.3745 14.0102 55.29 13.4187 55.121 12.942C54.952 12.4653 54.7223 12.1057 54.432 11.863C54.146 11.616 53.8188 11.4925 53.4505 11.4925C53.0908 11.4925 52.7636 11.616 52.469 11.863C52.1786 12.1057 51.9468 12.4675 51.7735 12.9485C51.6045 13.4252 51.52 14.0145 51.52 14.7165ZM62.4719 10.42V15.9775H63.4534V17.193H62.4719V19H61.1004V17.193H57.5124V16.0815L60.9444 10.42H62.4719ZM61.1004 15.9775V12.3505H61.0939L58.9294 15.9775H61.1004Z" fill="black"/>
<path d="M303.261 20C302.565 20 302 19.5383 302 18.9688L302 14.8437C302 14.2742 302.565 13.8125 303.261 13.8125C303.958 13.8125 304.522 14.2742 304.522 14.8437L304.522 18.9688C304.522 19.5383 303.958 20 303.261 20Z" fill="black"/>
<path d="M306.754 20C306.057 20 305.493 19.5383 305.493 18.9688L305.493 13.4688C305.493 12.8992 306.057 12.4375 306.754 12.4375C307.45 12.4375 308.015 12.8992 308.015 13.4688L308.015 18.9688C308.015 19.5383 307.45 20 306.754 20Z" fill="black"/>
<path d="M310.246 20C309.55 20 308.985 19.5383 308.985 18.9688V11.75C308.985 11.1805 309.55 10.7188 310.246 10.7188C310.943 10.7188 311.507 11.1805 311.507 11.75V18.9688C311.507 19.5383 310.943 20 310.246 20Z" fill="black"/>
<path d="M313.739 20C313.042 20 312.478 19.5383 312.478 18.9688V10.0312C312.478 9.46171 313.042 9 313.739 9C314.435 9 315 9.46171 315 10.0312V18.9688C315 19.5383 314.435 20 313.739 20Z" fill="black"/>
<path d="M320 14.3846C323.409 9.87179 331.25 9.87179 335 14.3846M331.5 16.6154C329.606 14.359 325.25 14.359 323.167 16.6154M327.333 19H326.5" stroke="black" stroke-width="2" stroke-linecap="round"/>
<path d="M342 12.6202C342 12.2856 342.312 12 342.717 12H353.283C353.688 12 354 12.2856 354 12.6202V18.3798C354 18.7144 353.688 19 353.283 19H342.717C342.312 19 342 18.7144 342 18.3798L342 12.6202Z" fill="black" stroke="white" stroke-width="2"/>
<path fill-rule="evenodd" clip-rule="evenodd" d="M341 11.7974C341 11.3672 341.402 11 341.924 11L355.54 11C356.063 11 356.465 11.3672 356.465 11.7974C356.465 12.2217 356.749 12.5934 357.159 12.7042L357.452 12.7836C357.71 12.8684 358 13.0707 358 13.3897V17.5446C358 17.8637 357.71 18.0659 357.452 18.1508L357.431 18.1577L357.243 18.2006C356.788 18.3043 356.465 18.7089 356.465 19.1757V19.2026C356.465 19.6328 356.063 20 355.54 20H341.924C341.402 20 341 19.6328 341 19.2026L341 11.7974Z" fill="black" stroke="white"/>
<mask id="path-11-inside-1_413_278" fill="white">
<path d="M0 55H393V107H0V55Z"/>
</mask>
<path d="M0 55V56H393V55V54H0V55ZM393 107V106H0V107V108H393V107Z" fill="black" mask="url(#path-11-inside-1_413_278)"/>
<path d="M24.9131 77.875H11.2218L17.5106 71.5863L15.9131 70L6.91309 79L15.9131 88L17.4993 86.4138L11.2218 80.125H24.9131V77.875Z" fill="black"/>
<path d="M146.571 74.08H140.551V74.4C140.551 74.94 140.571 75.46 140.551 76C140.451 78.52 139.671 80.18 137.851 82H146.591C146.651 81.56 146.631 74.3 146.571 74.08ZM138.531 72H148.571V82.02H150.491V86H148.571V84H134.571V86H132.491V82.02C132.551 82.02 132.691 82.02 132.751 82.02C135.951 82.04 138.551 79.22 138.551 76.08C138.531 74.84 138.531 73.58 138.531 72.34C138.531 72.24 138.531 72.12 138.531 72ZM156.53 73.96V78.02H168.55C168.69 78.02 168.83 78 168.95 77.98C169.97 77.74 170.67 76.8 170.55 75.8C170.43 74.74 169.57 73.96 168.51 73.96H156.53ZM168.47 80.02H156.53V86H154.51V72H168.53C170.57 72 172.27 73.56 172.49 75.58C172.73 77.74 171.21 79.68 169.07 79.98C168.87 80 168.67 80.02 168.47 80.02ZM176.51 72C177.19 72 177.85 72 178.53 72C178.53 72.06 178.53 72.12 178.53 72.18C178.53 73.3 178.53 74.42 178.53 75.54C178.53 76.92 179.59 78.02 180.99 78.02C184.77 78.02 188.53 78.02 192.33 78.02C192.37 78.02 192.41 78.02 192.47 78.02C192.47 76 192.47 74 192.47 72C193.15 72 193.81 72 194.51 72C194.51 72.06 194.51 72.1 194.51 72.16C194.51 75.34 194.51 78.54 194.51 81.72C194.49 83.92 192.81 85.76 190.65 85.98C190.49 85.98 190.33 86 190.17 86C185.69 86 181.21 86 176.73 86C176.67 86 176.59 86 176.51 86C176.51 85.34 176.51 84.7 176.51 84.04C176.57 84.04 176.65 84.04 176.71 84.04C181.13 84.04 185.55 84.04 189.97 84.04C191.43 84.04 192.47 82.96 192.47 81.52C192.47 81.02 192.47 80.52 192.47 80C192.41 80 192.35 80 192.29 80C188.47 80 184.65 80 180.83 80C178.53 80 176.51 78.14 176.51 75.8C176.51 74.56 176.51 73.32 176.51 72.1C176.51 72.06 176.51 72.04 176.51 72ZM215.19 78.96C215.29 79.06 215.37 79.14 215.43 79.22C216.47 80.42 216.79 81.82 216.27 83.3C215.67 85 214.19 86 212.41 86C208.05 86 203.21 86 198.85 86C198.75 86 198.65 86 198.53 86C198.53 85.3 198.53 84.64 198.53 83.94C198.63 83.94 198.75 83.92 198.87 83.92C203.21 83.92 208.01 83.92 212.35 83.92C212.59 83.92 212.81 83.92 213.03 83.86C213.89 83.66 214.51 82.78 214.49 81.9C214.47 81 213.83 80.2 212.95 80.02C212.85 79.98 212.73 80 212.63 80L205.43 79.98L205.39 77.94L212.55 77.92C213.47 77.92 214.27 77.3 214.45 76.4C214.69 75.14 213.77 74.04 212.45 74.04C207.83 74.02 203.15 74.02 198.53 74.02V72C202.89 72 208.07 71.98 212.45 71.98C214.41 71.98 216.03 73.28 216.41 75.2C216.69 76.52 216.33 77.7 215.43 78.72C215.35 78.8 215.29 78.86 215.19 78.96ZM222.549 80V83.92H222.669C225.289 83.92 231.869 83.92 234.469 83.92C234.609 83.92 234.749 83.9 234.889 83.86C235.849 83.64 236.509 82.74 236.409 81.78C236.289 80.74 235.469 80 234.429 80C231.849 80 225.309 80 222.709 80H222.549ZM220.529 72H222.549V77.98H222.729C225.329 77.98 231.869 77.98 234.469 77.98C236.489 77.98 238.169 79.44 238.449 81.44C238.769 83.66 237.149 85.74 234.909 85.98C234.749 85.98 234.589 86 234.429 86C231.169 86 223.969 86 220.709 86H220.529V72ZM258.589 78.02V73.96H258.489C254.529 73.96 250.529 73.96 246.569 73.96C246.429 73.96 246.289 73.98 246.169 74.02C245.149 74.24 244.469 75.2 244.589 76.18C244.709 77.26 245.549 78.02 246.609 78.02C250.529 78.02 254.509 78.02 258.429 78.02H258.589ZM260.549 72V86H258.529V80.02H258.369C257.049 80.02 255.729 80.02 254.429 80.02C254.329 80.02 254.249 80.04 254.169 80.1C252.269 81.54 250.389 82.98 248.469 84.42C247.049 85.46 245.429 85.98 243.649 86C243.289 86 242.929 86 242.549 86V84.1C244.489 84.1 246.229 83.56 247.789 82.4C248.809 81.64 249.849 80.88 250.869 80.12C250.909 80.1 250.929 80.08 251.009 80.02H250.829C249.409 80.02 247.969 80.02 246.569 80C245.009 79.98 243.829 79.3 243.049 77.94C241.989 76.04 242.689 73.58 244.589 72.52C245.189 72.18 245.849 72 246.569 72C251.209 72 255.909 72 260.549 72Z" fill="black"/>
<path d="M355.692 100.789C366.823 100.789 375.846 91.7713 375.846 80.6471C375.846 69.5228 366.823 60.5049 355.692 60.5049C344.561 60.5049 335.538 69.5228 335.538 80.6471C335.538 91.7713 344.561 100.789 355.692 100.789Z" fill="url(#paint1_linear_413_278)"/>
<path d="M358.715 80.6467C360.942 80.6467 362.746 78.844 362.746 76.6183C362.746 74.3926 360.942 72.5898 358.715 72.5898C356.488 72.5898 354.684 74.3926 354.684 76.6183C354.684 78.844 356.488 80.6467 358.715 80.6467ZM349.646 78.6325V75.6112H347.63V78.6325H344.607V80.6467H347.63V83.668H349.646V80.6467H352.669V78.6325H349.646ZM358.715 82.6609C356.025 82.6609 350.654 84.0105 350.654 86.6894V88.7036H366.777V86.6894C366.777 84.0105 361.406 82.6609 358.715 82.6609Z" fill="black"/>
<g filter="url(#filter2_d_413_278)">
<path d="M76.4416 815.414L67.2857 807.658C66.86 807.295 66.3386 807.066 65.7858 807H65.2338C64.6768 807.065 64.1507 807.293 63.7208 807.658L54.539 815.414C54.0622 815.817 53.6775 816.32 53.4117 816.888C53.1459 817.456 53.0054 818.077 53 818.706V831.281C52.9994 831.638 53.0685 831.992 53.2034 832.322C53.3383 832.652 53.5362 832.951 53.7859 833.203C54.0344 833.456 54.3298 833.657 54.6552 833.794C54.9807 833.931 55.3296 834.001 55.6819 834H60.8767C61.0489 834 61.214 833.931 61.3358 833.807C61.4576 833.684 61.5261 833.516 61.5261 833.342V828.456C61.5318 827.333 61.9564 826.254 62.7144 825.435C63.0902 825.023 63.545 824.694 64.0509 824.468C64.5567 824.241 65.103 824.122 65.656 824.118H65.7793C66.8262 824.15 67.8209 824.588 68.5586 825.342C68.9418 825.729 69.2459 826.189 69.4532 826.695C69.6605 827.201 69.7668 827.744 69.7663 828.292V833.342C69.7663 833.516 69.8347 833.684 69.9565 833.807C70.0783 833.931 70.2434 834 70.4156 834H75.3183C75.6706 834.001 76.0197 833.932 76.3452 833.795C76.6708 833.658 76.9662 833.457 77.2143 833.203C77.4637 832.953 77.6617 832.654 77.7966 832.325C77.9315 831.996 78.0005 831.644 78 831.287V818.706C77.9918 818.075 77.8482 817.454 77.5791 816.886C77.3099 816.317 76.9217 815.815 76.4416 815.414Z" fill="white"/>
<path d="M78.0996 831.287C78.1001 831.656 78.0285 832.022 77.8887 832.363C77.7489 832.704 77.5435 833.013 77.2852 833.272C77.0278 833.536 76.7217 833.745 76.3838 833.887C76.0461 834.029 75.684 834.1 75.3184 834.099V834.1H70.416C70.2168 834.1 70.0262 834.019 69.8857 833.877C69.7454 833.735 69.6661 833.542 69.666 833.342V828.292C69.6665 827.757 69.5627 827.227 69.3604 826.732C69.158 826.238 68.8612 825.79 68.4873 825.413V825.412C67.8125 824.722 66.9173 824.304 65.9668 824.229L65.7764 824.218H65.6572L65.4551 824.225C64.9852 824.253 64.5234 824.365 64.0918 824.559C63.6602 824.752 63.2669 825.022 62.9297 825.355L62.7881 825.502C62.0472 826.303 61.6316 827.359 61.626 828.457V833.342C61.6259 833.542 61.5473 833.735 61.4072 833.877C61.2669 834.019 61.0761 834.1 60.877 834.1H55.6816C55.3161 834.1 54.9538 834.028 54.6162 833.886C54.3631 833.779 54.1276 833.636 53.917 833.46L53.7148 833.273C53.456 833.012 53.2501 832.701 53.1104 832.359C52.9707 832.017 52.8997 831.65 52.9004 831.28V818.705C52.9059 818.062 53.0494 817.427 53.3213 816.846C53.5931 816.264 53.9867 815.75 54.4746 815.338L63.6562 807.582L63.8271 807.447C64.2374 807.148 64.7179 806.959 65.2227 806.9L65.2334 806.899V806.9H65.7979L66.0107 806.935C66.5035 807.031 66.9651 807.253 67.3506 807.582L76.5049 815.337C76.9962 815.747 77.3946 816.261 77.6699 816.843C77.9452 817.424 78.0912 818.06 78.0996 818.705V831.287Z" stroke="white" stroke-width="0.2"/>
</g>
<g filter="url(#filter3_d_413_278)">
<path d="M133.335 807.267C133.404 807.284 133.404 807.284 133.474 807.301C135.32 807.751 136.892 808.712 138.225 810.054C138.251 810.08 138.277 810.106 138.303 810.133C140.062 811.926 140.92 814.486 140.919 816.96C140.858 820.957 138.405 824.832 136.227 828.036C136.184 828.1 136.184 828.1 136.14 828.164C135.564 829.016 134.958 829.842 134.323 830.65C134.194 830.814 134.067 830.979 133.939 831.144C133.523 831.681 133.097 832.207 132.656 832.724C132.499 832.909 132.346 833.097 132.195 833.288C131.983 833.548 131.748 833.825 131.442 833.978C131.342 833.987 131.241 833.992 131.14 833.994C131.086 833.996 131.032 833.998 130.976 834C130.629 833.953 130.413 833.697 130.19 833.449C130.163 833.418 130.135 833.388 130.107 833.357C129.904 833.132 129.71 832.902 129.521 832.666C129.422 832.543 129.322 832.421 129.221 832.3C128.888 831.901 128.565 831.497 128.256 831.079C128.079 830.841 127.896 830.609 127.709 830.379C127.399 829.996 127.116 829.597 126.836 829.192C126.77 829.098 126.703 829.005 126.636 828.912C124.377 825.8 122.063 822.117 121.452 818.256C121.446 818.218 121.44 818.18 121.434 818.141C121.064 815.729 121.695 813.12 123.129 811.146C123.166 811.098 123.202 811.05 123.24 811.001C123.273 810.956 123.306 810.912 123.34 810.866C124.757 809.039 126.676 807.811 128.918 807.267C128.963 807.256 129.007 807.245 129.053 807.234C130.412 806.905 131.982 806.929 133.335 807.267ZM127.762 813.261C127.728 813.29 127.695 813.319 127.66 813.349C126.746 814.199 126.305 815.458 126.227 816.674C126.195 818.049 126.757 819.287 127.681 820.282C128.32 820.908 129.107 821.336 129.97 821.569C130.012 821.581 130.054 821.593 130.097 821.605C131.298 821.883 132.632 821.628 133.675 820.987C134.811 820.232 135.598 819.169 135.911 817.836C136.168 816.553 135.952 815.216 135.219 814.116C134.402 812.959 133.298 812.267 131.926 811.968C130.354 811.776 128.95 812.211 127.762 813.261Z" fill="white"/>
<path d="M129.029 807.137C130.404 806.804 131.99 806.828 133.357 807.17C133.426 807.186 133.427 807.186 133.497 807.203H133.498C135.364 807.658 136.952 808.63 138.296 809.983C138.322 810.009 138.347 810.036 138.374 810.062L138.375 810.063C140.155 811.878 141.021 814.465 141.02 816.961V816.962C140.958 820.992 138.486 824.893 136.31 828.093L136.309 828.092C136.266 828.155 136.266 828.156 136.223 828.221C135.645 829.074 135.038 829.902 134.401 830.712C134.273 830.876 134.146 831.04 134.019 831.205C133.602 831.743 133.174 832.271 132.732 832.789L132.731 832.788C132.575 832.972 132.423 833.16 132.272 833.35V833.351C132.062 833.61 131.815 833.904 131.487 834.067L131.47 834.075L131.451 834.077C131.348 834.087 131.245 834.09 131.143 834.093L131.144 834.094C131.09 834.096 131.035 834.098 130.979 834.1L130.972 834.101L130.963 834.099C130.572 834.046 130.331 833.757 130.115 833.516V833.515L130.032 833.424C129.828 833.198 129.634 832.965 129.443 832.729L129.145 832.364C128.811 831.964 128.486 831.559 128.176 831.139C128 830.902 127.818 830.672 127.632 830.442H127.631C127.318 830.057 127.034 829.654 126.753 829.249V829.248L126.555 828.971C124.295 825.857 121.968 822.159 121.354 818.272C121.347 818.235 121.341 818.196 121.335 818.157V818.156C120.961 815.718 121.599 813.082 123.049 811.087L123.05 811.086C123.086 811.038 123.123 810.99 123.16 810.94L123.261 810.807L123.262 810.805C124.692 808.96 126.63 807.719 128.895 807.17C128.939 807.159 128.983 807.148 129.028 807.137H129.029ZM131.905 812.065C130.365 811.88 128.993 812.307 127.828 813.336L127.827 813.337C127.795 813.365 127.761 813.393 127.728 813.422C126.837 814.249 126.405 815.482 126.327 816.681C126.297 818.022 126.845 819.233 127.752 820.211L127.993 820.432C128.571 820.926 129.254 821.273 129.996 821.473H129.997C130.037 821.484 130.077 821.495 130.118 821.507H130.119C131.292 821.778 132.597 821.53 133.619 820.903C134.736 820.161 135.507 819.119 135.814 817.812C136.065 816.554 135.852 815.247 135.136 814.172V814.171C134.334 813.037 133.253 812.36 131.905 812.065Z" stroke="white" stroke-width="0.2"/>
</g>
<g filter="url(#filter4_d_413_278)">
<mask id="path-21-outside-2_413_278" maskUnits="userSpaceOnUse" x="184.231" y="808" width="27" height="25" fill="black">
<rect fill="white" x="184.231" y="808" width="27" height="25"/>
<path d="M206.246 811.718C206.463 811.908 206.673 812.104 206.88 812.304C206.924 812.345 206.968 812.387 207.013 812.43C207.302 812.712 207.559 813.011 207.808 813.328C207.859 813.393 207.859 813.393 207.912 813.46C208.9 814.736 209.589 816.191 209.973 817.757C209.99 817.824 209.99 817.824 210.007 817.893C210.206 818.76 210.275 819.62 210.269 820.508C210.269 820.583 210.269 820.583 210.268 820.66C210.265 821.451 210.228 822.216 210.052 822.991C210.034 823.07 210.034 823.07 210.016 823.152C209.779 824.162 209.418 825.102 208.93 826.016C208.913 826.049 208.896 826.081 208.878 826.114C208.385 827.041 207.747 827.841 207.027 828.602C206.984 828.648 206.941 828.693 206.897 828.74C206.56 829.089 206.196 829.386 205.807 829.676C205.765 829.708 205.765 829.708 205.722 829.74C203.327 831.524 200.294 832.305 197.333 831.892C194.347 831.429 191.604 829.884 189.801 827.431C189.766 827.386 189.731 827.341 189.696 827.294C189.464 826.982 189.344 826.731 189.365 826.333C189.41 826.027 189.569 825.79 189.795 825.583C190.085 825.386 190.35 825.356 190.691 825.4C191.185 825.513 191.423 825.917 191.701 826.303C191.908 826.587 192.144 826.838 192.387 827.09C192.421 827.126 192.454 827.163 192.489 827.201C194.101 828.909 196.529 829.747 198.829 829.822C199.156 829.826 199.479 829.806 199.805 829.774C199.843 829.77 199.882 829.766 199.922 829.762C201.907 829.549 203.785 828.669 205.221 827.285C205.247 827.26 205.273 827.235 205.3 827.21C205.938 826.6 206.434 825.947 206.88 825.187C206.899 825.155 206.918 825.123 206.937 825.091C208.155 823.014 208.371 820.506 207.795 818.199C207.331 816.453 206.304 814.711 204.88 813.572C204.834 813.535 204.789 813.499 204.742 813.461C204.338 813.137 203.911 812.859 203.465 812.596C203.435 812.579 203.405 812.561 203.375 812.543C202.13 811.816 200.656 811.43 199.219 811.376C199.167 811.374 199.115 811.372 199.061 811.37C196.544 811.323 194.193 812.34 192.387 814.06C192.353 814.092 192.318 814.124 192.283 814.157C191.252 815.139 190.538 816.482 190.094 817.818C190.08 817.859 190.066 817.9 190.052 817.942C190.017 818.047 189.982 818.152 189.947 818.257C189.992 818.227 190.037 818.196 190.084 818.165C190.252 818.052 190.421 817.94 190.59 817.827C190.663 817.779 190.736 817.73 190.808 817.681C190.913 817.611 191.019 817.541 191.124 817.471C191.156 817.449 191.188 817.427 191.221 817.405C191.548 817.19 191.883 817.04 192.28 817.107C192.642 817.199 192.819 817.348 193.015 817.666C193.144 817.907 193.141 818.136 193.119 818.403C193.001 818.776 192.81 818.991 192.491 819.199C192.439 819.233 192.386 819.268 192.333 819.303C192.303 819.323 192.273 819.342 192.242 819.363C192.047 819.492 191.852 819.624 191.658 819.755C191.568 819.816 191.478 819.876 191.389 819.937C191.251 820.03 191.113 820.123 190.975 820.216C190.93 820.246 190.886 820.277 190.839 820.308C190.795 820.338 190.75 820.368 190.704 820.4C190.57 820.49 190.436 820.579 190.303 820.669C190.134 820.783 189.965 820.898 189.798 821.014C189.759 821.04 189.72 821.067 189.679 821.095C189.607 821.144 189.535 821.194 189.463 821.245C189.119 821.478 188.776 821.619 188.357 821.557C187.665 821.378 187.298 820.535 186.937 819.98C186.828 819.814 186.72 819.649 186.611 819.483C186.571 819.421 186.571 819.421 186.529 819.357C186.352 819.086 186.172 818.816 185.992 818.547C185.969 818.513 185.946 818.479 185.923 818.444C185.836 818.314 185.749 818.185 185.662 818.056C185.604 817.969 185.545 817.882 185.487 817.794C185.454 817.746 185.421 817.697 185.387 817.647C185.2 817.347 185.214 816.942 185.262 816.598C185.362 816.333 185.539 816.119 185.797 815.995C186.118 815.893 186.455 815.873 186.77 816.001C187.282 816.3 187.591 816.989 187.898 817.476C187.916 817.421 187.916 817.421 187.934 817.364C188.682 815.074 189.904 812.957 191.85 811.474C191.878 811.453 191.906 811.432 191.934 811.41C193.608 810.138 195.52 809.34 197.609 809.083C197.662 809.076 197.662 809.076 197.716 809.069C200.761 808.716 203.923 809.739 206.246 811.718Z"/>
<path d="M199.53 814.416C199.738 814.636 199.869 814.923 199.872 815.226C199.868 815.31 199.862 815.395 199.855 815.479C199.85 815.575 199.845 815.671 199.84 815.768C199.835 815.844 199.835 815.844 199.83 815.921C199.814 816.193 199.805 816.466 199.795 816.739C199.793 816.796 199.792 816.853 199.79 816.911C199.624 819.059 199.624 819.059 200.44 820.95C200.782 821.295 201.173 821.585 201.593 821.827C201.79 821.945 201.927 822.085 202.071 822.263C202.15 822.36 202.235 822.445 202.325 822.532C202.368 822.574 202.368 822.574 202.413 822.617C202.472 822.673 202.531 822.73 202.591 822.786C202.818 823.006 202.945 823.196 202.999 823.515C203.004 823.859 202.936 824.124 202.733 824.406C202.494 824.633 202.267 824.707 201.943 824.714C201.863 824.717 201.863 824.717 201.782 824.719C201.341 824.666 201.074 824.385 200.777 824.082C200.716 824.02 200.716 824.02 200.653 823.957C200.524 823.827 200.394 823.695 200.265 823.564C200.178 823.476 200.091 823.389 200.004 823.301C199.92 823.217 199.836 823.132 199.753 823.048C199.714 823.009 199.675 822.97 199.635 822.93C199.434 822.724 199.24 822.515 199.052 822.297C198.944 822.175 198.829 822.061 198.712 821.947C198.665 821.901 198.618 821.854 198.57 821.808C198.498 821.737 198.425 821.666 198.352 821.596C198.281 821.526 198.21 821.456 198.139 821.386C198.097 821.345 198.054 821.304 198.011 821.262C197.737 820.948 197.733 820.67 197.735 820.27C197.734 820.212 197.734 820.155 197.733 820.096C197.732 819.939 197.732 819.781 197.732 819.624C197.732 819.493 197.732 819.361 197.731 819.23C197.73 818.92 197.73 818.609 197.731 818.299C197.731 817.98 197.73 817.66 197.728 817.341C197.726 817.066 197.726 816.791 197.726 816.516C197.726 816.353 197.726 816.189 197.725 816.025C197.724 815.842 197.724 815.659 197.725 815.476C197.724 815.422 197.724 815.368 197.723 815.313C197.727 814.98 197.781 814.757 197.999 814.5C198.418 814.111 199.069 814.023 199.53 814.416Z"/>
</mask>
<path d="M206.246 811.718C206.463 811.908 206.673 812.104 206.88 812.304C206.924 812.345 206.968 812.387 207.013 812.43C207.302 812.712 207.559 813.011 207.808 813.328C207.859 813.393 207.859 813.393 207.912 813.46C208.9 814.736 209.589 816.191 209.973 817.757C209.99 817.824 209.99 817.824 210.007 817.893C210.206 818.76 210.275 819.62 210.269 820.508C210.269 820.583 210.269 820.583 210.268 820.66C210.265 821.451 210.228 822.216 210.052 822.991C210.034 823.07 210.034 823.07 210.016 823.152C209.779 824.162 209.418 825.102 208.93 826.016C208.913 826.049 208.896 826.081 208.878 826.114C208.385 827.041 207.747 827.841 207.027 828.602C206.984 828.648 206.941 828.693 206.897 828.74C206.56 829.089 206.196 829.386 205.807 829.676C205.765 829.708 205.765 829.708 205.722 829.74C203.327 831.524 200.294 832.305 197.333 831.892C194.347 831.429 191.604 829.884 189.801 827.431C189.766 827.386 189.731 827.341 189.696 827.294C189.464 826.982 189.344 826.731 189.365 826.333C189.41 826.027 189.569 825.79 189.795 825.583C190.085 825.386 190.35 825.356 190.691 825.4C191.185 825.513 191.423 825.917 191.701 826.303C191.908 826.587 192.144 826.838 192.387 827.09C192.421 827.126 192.454 827.163 192.489 827.201C194.101 828.909 196.529 829.747 198.829 829.822C199.156 829.826 199.479 829.806 199.805 829.774C199.843 829.77 199.882 829.766 199.922 829.762C201.907 829.549 203.785 828.669 205.221 827.285C205.247 827.26 205.273 827.235 205.3 827.21C205.938 826.6 206.434 825.947 206.88 825.187C206.899 825.155 206.918 825.123 206.937 825.091C208.155 823.014 208.371 820.506 207.795 818.199C207.331 816.453 206.304 814.711 204.88 813.572C204.834 813.535 204.789 813.499 204.742 813.461C204.338 813.137 203.911 812.859 203.465 812.596C203.435 812.579 203.405 812.561 203.375 812.543C202.13 811.816 200.656 811.43 199.219 811.376C199.167 811.374 199.115 811.372 199.061 811.37C196.544 811.323 194.193 812.34 192.387 814.06C192.353 814.092 192.318 814.124 192.283 814.157C191.252 815.139 190.538 816.482 190.094 817.818C190.08 817.859 190.066 817.9 190.052 817.942C190.017 818.047 189.982 818.152 189.947 818.257C189.992 818.227 190.037 818.196 190.084 818.165C190.252 818.052 190.421 817.94 190.59 817.827C190.663 817.779 190.736 817.73 190.808 817.681C190.913 817.611 191.019 817.541 191.124 817.471C191.156 817.449 191.188 817.427 191.221 817.405C191.548 817.19 191.883 817.04 192.28 817.107C192.642 817.199 192.819 817.348 193.015 817.666C193.144 817.907 193.141 818.136 193.119 818.403C193.001 818.776 192.81 818.991 192.491 819.199C192.439 819.233 192.386 819.268 192.333 819.303C192.303 819.323 192.273 819.342 192.242 819.363C192.047 819.492 191.852 819.624 191.658 819.755C191.568 819.816 191.478 819.876 191.389 819.937C191.251 820.03 191.113 820.123 190.975 820.216C190.93 820.246 190.886 820.277 190.839 820.308C190.795 820.338 190.75 820.368 190.704 820.4C190.57 820.49 190.436 820.579 190.303 820.669C190.134 820.783 189.965 820.898 189.798 821.014C189.759 821.04 189.72 821.067 189.679 821.095C189.607 821.144 189.535 821.194 189.463 821.245C189.119 821.478 188.776 821.619 188.357 821.557C187.665 821.378 187.298 820.535 186.937 819.98C186.828 819.814 186.72 819.649 186.611 819.483C186.571 819.421 186.571 819.421 186.529 819.357C186.352 819.086 186.172 818.816 185.992 818.547C185.969 818.513 185.946 818.479 185.923 818.444C185.836 818.314 185.749 818.185 185.662 818.056C185.604 817.969 185.545 817.882 185.487 817.794C185.454 817.746 185.421 817.697 185.387 817.647C185.2 817.347 185.214 816.942 185.262 816.598C185.362 816.333 185.539 816.119 185.797 815.995C186.118 815.893 186.455 815.873 186.77 816.001C187.282 816.3 187.591 816.989 187.898 817.476C187.916 817.421 187.916 817.421 187.934 817.364C188.682 815.074 189.904 812.957 191.85 811.474C191.878 811.453 191.906 811.432 191.934 811.41C193.608 810.138 195.52 809.34 197.609 809.083C197.662 809.076 197.662 809.076 197.716 809.069C200.761 808.716 203.923 809.739 206.246 811.718Z" fill="#D5FF2E"/>
<path d="M199.53 814.416C199.738 814.636 199.869 814.923 199.872 815.226C199.868 815.31 199.862 815.395 199.855 815.479C199.85 815.575 199.845 815.671 199.84 815.768C199.835 815.844 199.835 815.844 199.83 815.921C199.814 816.193 199.805 816.466 199.795 816.739C199.793 816.796 199.792 816.853 199.79 816.911C199.624 819.059 199.624 819.059 200.44 820.95C200.782 821.295 201.173 821.585 201.593 821.827C201.79 821.945 201.927 822.085 202.071 822.263C202.15 822.36 202.235 822.445 202.325 822.532C202.368 822.574 202.368 822.574 202.413 822.617C202.472 822.673 202.531 822.73 202.591 822.786C202.818 823.006 202.945 823.196 202.999 823.515C203.004 823.859 202.936 824.124 202.733 824.406C202.494 824.633 202.267 824.707 201.943 824.714C201.863 824.717 201.863 824.717 201.782 824.719C201.341 824.666 201.074 824.385 200.777 824.082C200.716 824.02 200.716 824.02 200.653 823.957C200.524 823.827 200.394 823.695 200.265 823.564C200.178 823.476 200.091 823.389 200.004 823.301C199.92 823.217 199.836 823.132 199.753 823.048C199.714 823.009 199.675 822.97 199.635 822.93C199.434 822.724 199.24 822.515 199.052 822.297C198.944 822.175 198.829 822.061 198.712 821.947C198.665 821.901 198.618 821.854 198.57 821.808C198.498 821.737 198.425 821.666 198.352 821.596C198.281 821.526 198.21 821.456 198.139 821.386C198.097 821.345 198.054 821.304 198.011 821.262C197.737 820.948 197.733 820.67 197.735 820.27C197.734 820.212 197.734 820.155 197.733 820.096C197.732 819.939 197.732 819.781 197.732 819.624C197.732 819.493 197.732 819.361 197.731 819.23C197.73 818.92 197.73 818.609 197.731 818.299C197.731 817.98 197.73 817.66 197.728 817.341C197.726 817.066 197.726 816.791 197.726 816.516C197.726 816.353 197.726 816.189 197.725 816.025C197.724 815.842 197.724 815.659 197.725 815.476C197.724 815.422 197.724 815.368 197.723 815.313C197.727 814.98 197.781 814.757 197.999 814.5C198.418 814.111 199.069 814.023 199.53 814.416Z" fill="#D5FF2E"/>
<path d="M206.246 811.718C206.463 811.908 206.673 812.104 206.88 812.304C206.924 812.345 206.968 812.387 207.013 812.43C207.302 812.712 207.559 813.011 207.808 813.328C207.859 813.393 207.859 813.393 207.912 813.46C208.9 814.736 209.589 816.191 209.973 817.757C209.99 817.824 209.99 817.824 210.007 817.893C210.206 818.76 210.275 819.62 210.269 820.508C210.269 820.583 210.269 820.583 210.268 820.66C210.265 821.451 210.228 822.216 210.052 822.991C210.034 823.07 210.034 823.07 210.016 823.152C209.779 824.162 209.418 825.102 208.93 826.016C208.913 826.049 208.896 826.081 208.878 826.114C208.385 827.041 207.747 827.841 207.027 828.602C206.984 828.648 206.941 828.693 206.897 828.74C206.56 829.089 206.196 829.386 205.807 829.676C205.765 829.708 205.765 829.708 205.722 829.74C203.327 831.524 200.294 832.305 197.333 831.892C194.347 831.429 191.604 829.884 189.801 827.431C189.766 827.386 189.731 827.341 189.696 827.294C189.464 826.982 189.344 826.731 189.365 826.333C189.41 826.027 189.569 825.79 189.795 825.583C190.085 825.386 190.35 825.356 190.691 825.4C191.185 825.513 191.423 825.917 191.701 826.303C191.908 826.587 192.144 826.838 192.387 827.09C192.421 827.126 192.454 827.163 192.489 827.201C194.101 828.909 196.529 829.747 198.829 829.822C199.156 829.826 199.479 829.806 199.805 829.774C199.843 829.77 199.882 829.766 199.922 829.762C201.907 829.549 203.785 828.669 205.221 827.285C205.247 827.26 205.273 827.235 205.3 827.21C205.938 826.6 206.434 825.947 206.88 825.187C206.899 825.155 206.918 825.123 206.937 825.091C208.155 823.014 208.371 820.506 207.795 818.199C207.331 816.453 206.304 814.711 204.88 813.572C204.834 813.535 204.789 813.499 204.742 813.461C204.338 813.137 203.911 812.859 203.465 812.596C203.435 812.579 203.405 812.561 203.375 812.543C202.13 811.816 200.656 811.43 199.219 811.376C199.167 811.374 199.115 811.372 199.061 811.37C196.544 811.323 194.193 812.34 192.387 814.06C192.353 814.092 192.318 814.124 192.283 814.157C191.252 815.139 190.538 816.482 190.094 817.818C190.08 817.859 190.066 817.9 190.052 817.942C190.017 818.047 189.982 818.152 189.947 818.257C189.992 818.227 190.037 818.196 190.084 818.165C190.252 818.052 190.421 817.94 190.59 817.827C190.663 817.779 190.736 817.73 190.808 817.681C190.913 817.611 191.019 817.541 191.124 817.471C191.156 817.449 191.188 817.427 191.221 817.405C191.548 817.19 191.883 817.04 192.28 817.107C192.642 817.199 192.819 817.348 193.015 817.666C193.144 817.907 193.141 818.136 193.119 818.403C193.001 818.776 192.81 818.991 192.491 819.199C192.439 819.233 192.386 819.268 192.333 819.303C192.303 819.323 192.273 819.342 192.242 819.363C192.047 819.492 191.852 819.624 191.658 819.755C191.568 819.816 191.478 819.876 191.389 819.937C191.251 820.03 191.113 820.123 190.975 820.216C190.93 820.246 190.886 820.277 190.839 820.308C190.795 820.338 190.75 820.368 190.704 820.4C190.57 820.49 190.436 820.579 190.303 820.669C190.134 820.783 189.965 820.898 189.798 821.014C189.759 821.04 189.72 821.067 189.679 821.095C189.607 821.144 189.535 821.194 189.463 821.245C189.119 821.478 188.776 821.619 188.357 821.557C187.665 821.378 187.298 820.535 186.937 819.98C186.828 819.814 186.72 819.649 186.611 819.483C186.571 819.421 186.571 819.421 186.529 819.357C186.352 819.086 186.172 818.816 185.992 818.547C185.969 818.513 185.946 818.479 185.923 818.444C185.836 818.314 185.749 818.185 185.662 818.056C185.604 817.969 185.545 817.882 185.487 817.794C185.454 817.746 185.421 817.697 185.387 817.647C185.2 817.347 185.214 816.942 185.262 816.598C185.362 816.333 185.539 816.119 185.797 815.995C186.118 815.893 186.455 815.873 186.77 816.001C187.282 816.3 187.591 816.989 187.898 817.476C187.916 817.421 187.916 817.421 187.934 817.364C188.682 815.074 189.904 812.957 191.85 811.474C191.878 811.453 191.906 811.432 191.934 811.41C193.608 810.138 195.52 809.34 197.609 809.083C197.662 809.076 197.662 809.076 197.716 809.069C200.761 808.716 203.923 809.739 206.246 811.718Z" stroke="#D5FF2E" stroke-width="0.4" mask="url(#path-21-outside-2_413_278)"/>
<path d="M199.53 814.416C199.738 814.636 199.869 814.923 199.872 815.226C199.868 815.31 199.862 815.395 199.855 815.479C199.85 815.575 199.845 815.671 199.84 815.768C199.835 815.844 199.835 815.844 199.83 815.921C199.814 816.193 199.805 816.466 199.795 816.739C199.793 816.796 199.792 816.853 199.79 816.911C199.624 819.059 199.624 819.059 200.44 820.95C200.782 821.295 201.173 821.585 201.593 821.827C201.79 821.945 201.927 822.085 202.071 822.263C202.15 822.36 202.235 822.445 202.325 822.532C202.368 822.574 202.368 822.574 202.413 822.617C202.472 822.673 202.531 822.73 202.591 822.786C202.818 823.006 202.945 823.196 202.999 823.515C203.004 823.859 202.936 824.124 202.733 824.406C202.494 824.633 202.267 824.707 201.943 824.714C201.863 824.717 201.863 824.717 201.782 824.719C201.341 824.666 201.074 824.385 200.777 824.082C200.716 824.02 200.716 824.02 200.653 823.957C200.524 823.827 200.394 823.695 200.265 823.564C200.178 823.476 200.091 823.389 200.004 823.301C199.92 823.217 199.836 823.132 199.753 823.048C199.714 823.009 199.675 822.97 199.635 822.93C199.434 822.724 199.24 822.515 199.052 822.297C198.944 822.175 198.829 822.061 198.712 821.947C198.665 821.901 198.618 821.854 198.57 821.808C198.498 821.737 198.425 821.666 198.352 821.596C198.281 821.526 198.21 821.456 198.139 821.386C198.097 821.345 198.054 821.304 198.011 821.262C197.737 820.948 197.733 820.67 197.735 820.27C197.734 820.212 197.734 820.155 197.733 820.096C197.732 819.939 197.732 819.781 197.732 819.624C197.732 819.493 197.732 819.361 197.731 819.23C197.73 818.92 197.73 818.609 197.731 818.299C197.731 817.98 197.73 817.66 197.728 817.341C197.726 817.066 197.726 816.791 197.726 816.516C197.726 816.353 197.726 816.189 197.725 816.025C197.724 815.842 197.724 815.659 197.725 815.476C197.724 815.422 197.724 815.368 197.723 815.313C197.727 814.98 197.781 814.757 197.999 814.5C198.418 814.111 199.069 814.023 199.53 814.416Z" stroke="#D5FF2E" stroke-width="0.4" mask="url(#path-21-outside-2_413_278)"/>
</g>
<g filter="url(#filter5_d_413_278)">
<path fill-rule="evenodd" clip-rule="evenodd" d="M274.5 818.239H277.102V818.216C278.352 818.216 279.375 819.239 279.375 820.489C279.375 821.739 278.352 822.761 277.102 822.761H274.5C274.42 823.023 274.33 823.284 274.227 823.534C274.114 823.784 274 824.034 273.875 824.273L275.716 826.114C276.602 827 276.602 828.443 275.716 829.329C274.83 830.216 273.386 830.216 272.5 829.329L270.659 827.489C270.42 827.625 270.17 827.739 269.92 827.841C269.67 827.943 269.409 828.034 269.148 828.114V830.716C269.148 831.966 268.125 832.989 266.875 832.989C265.625 832.989 264.602 831.966 264.602 830.716V828.114C264.341 828.034 264.08 827.943 263.83 827.841C263.58 827.727 263.33 827.614 263.091 827.489L261.25 829.329C260.364 830.216 258.92 830.216 258.034 829.329C257.148 828.443 257.148 827 258.034 826.114L259.875 824.273C259.739 824.034 259.625 823.784 259.523 823.534C259.42 823.284 259.33 823.023 259.25 822.761H256.648C255.398 822.761 254.375 821.739 254.375 820.489C254.375 819.239 255.398 818.216 256.648 818.216H259.295C259.375 817.954 259.466 817.693 259.568 817.443C259.67 817.193 259.784 816.954 259.909 816.716L258.068 814.875C257.182 813.989 257.182 812.545 258.068 811.659C258.955 810.773 260.398 810.773 261.284 811.659L263.125 813.5C263.364 813.375 263.602 813.261 263.852 813.159H263.864C264.114 813.057 264.364 812.966 264.625 812.886V810.284C264.625 809.034 265.648 808.011 266.898 808.011C268.148 808.011 269.17 809.034 269.17 810.284V812.909C269.432 812.989 269.682 813.079 269.932 813.182H269.943C270.193 813.284 270.432 813.398 270.67 813.523L272.511 811.682C273.398 810.795 274.841 810.795 275.727 811.682C276.614 812.568 276.614 814.011 275.727 814.898L273.886 816.739C274.011 816.977 274.125 817.216 274.227 817.466C274.33 817.716 274.42 817.977 274.5 818.239ZM271.42 820.511C271.42 823.022 269.385 825.057 266.875 825.057C264.365 825.057 262.33 823.022 262.33 820.511C262.33 818.001 264.365 815.966 266.875 815.966C269.385 815.966 271.42 818.001 271.42 820.511Z" fill="white"/>
<path d="M266.897 807.912C268.203 807.912 269.27 808.979 269.271 810.284V812.836C269.503 812.909 269.726 812.991 269.949 813.082H269.963L269.981 813.089C270.211 813.183 270.431 813.288 270.649 813.401L272.44 811.611C273.366 810.685 274.872 810.686 275.798 811.611C276.723 812.536 276.723 814.043 275.798 814.968L274.008 816.758C274.121 816.978 274.226 817.198 274.32 817.428C274.414 817.658 274.497 817.898 274.572 818.138H277.002V818.116H277.103C278.408 818.116 279.475 819.184 279.475 820.489C279.474 821.794 278.408 822.861 277.103 822.861H274.572C274.497 823.101 274.415 823.341 274.32 823.572L274.318 823.576C274.215 823.803 274.109 824.031 273.996 824.252L275.786 826.042C276.712 826.968 276.712 828.474 275.786 829.4C274.861 830.325 273.355 830.325 272.43 829.4L270.642 827.612C270.418 827.735 270.187 827.839 269.958 827.933C269.728 828.027 269.488 828.11 269.248 828.185V830.715C269.248 832.021 268.18 833.088 266.875 833.088C265.57 833.088 264.502 832.021 264.502 830.715V828.185C264.262 828.11 264.022 828.027 263.792 827.933L263.788 827.932C263.561 827.829 263.332 827.722 263.11 827.609L261.32 829.4C260.395 830.325 258.889 830.325 257.964 829.4C257.038 828.474 257.038 826.968 257.964 826.042L259.751 824.254C259.628 824.031 259.523 823.801 259.43 823.572C259.335 823.341 259.253 823.101 259.178 822.861H256.647C255.342 822.861 254.276 821.794 254.275 820.489C254.275 819.184 255.342 818.116 256.647 818.116H259.224C259.299 817.876 259.381 817.635 259.476 817.405C259.57 817.174 259.674 816.954 259.787 816.735L257.997 814.946C257.072 814.02 257.072 812.514 257.997 811.588C258.922 810.663 260.429 810.663 261.354 811.588L263.145 813.378C263.364 813.265 263.584 813.16 263.814 813.066L263.833 813.059H263.844C264.068 812.968 264.292 812.887 264.525 812.814V810.284C264.526 808.979 265.592 807.912 266.897 807.912ZM266.875 816.066C264.42 816.066 262.43 818.056 262.43 820.511C262.43 822.966 264.42 824.957 266.875 824.957C269.33 824.957 271.32 822.966 271.32 820.511C271.32 818.056 269.33 816.066 266.875 816.066Z" stroke="white" stroke-width="0.2"/>
</g>
<g filter="url(#filter6_d_413_278)">
<path d="M331.25 820.5C332.576 820.5 333.848 819.973 334.786 819.036C335.723 818.098 336.25 816.826 336.25 815.5C336.25 814.174 335.723 812.902 334.786 811.964C333.848 811.027 332.576 810.5 331.25 810.5C329.924 810.5 328.652 811.027 327.714 811.964C326.777 812.902 326.25 814.174 326.25 815.5C326.25 816.826 326.777 818.098 327.714 819.036C328.652 819.973 329.924 820.5 331.25 820.5ZM329.465 822.375C325.617 822.375 322.5 825.492 322.5 829.34C322.5 829.98 323.02 830.5 323.66 830.5H338.84C339.48 830.5 340 829.98 340 829.34C340 825.492 336.883 822.375 333.035 822.375H329.465Z" fill="white"/>
<path d="M333.035 822.275C336.938 822.275 340.1 825.437 340.1 829.34C340.1 830.036 339.536 830.6 338.84 830.6H323.66C322.964 830.6 322.4 830.036 322.4 829.34C322.4 825.437 325.562 822.275 329.465 822.275H333.035ZM331.25 810.4C332.603 810.4 333.9 810.937 334.856 811.894C335.813 812.85 336.35 814.147 336.35 815.5C336.35 816.853 335.813 818.15 334.856 819.106C333.9 820.063 332.603 820.6 331.25 820.6C329.897 820.6 328.6 820.063 327.644 819.106C326.687 818.15 326.15 816.853 326.15 815.5C326.15 814.147 326.687 812.85 327.644 811.894C328.6 810.937 329.897 810.4 331.25 810.4Z" stroke="white" stroke-width="0.2"/>
</g>
<mask id="path-26-outside-3_413_278" maskUnits="userSpaceOnUse" x="14.4375" y="783" width="365" height="69" fill="black">
<rect fill="white" x="14.4375" y="783" width="365" height="69"/>
<path d="M24.4375 813.5C24.4375 802.178 33.6157 793 44.9375 793H348.062C359.384 793 368.562 802.178 368.562 813.5V831.5C368.562 842.822 359.384 852 348.062 852H44.9375C33.6157 852 24.4375 842.822 24.4375 831.5V813.5Z"/>
</mask>
<path d="M14.4375 813.5C14.4375 796.655 28.0928 783 44.9375 783H348.062C364.907 783 378.562 796.655 378.562 813.5H358.562C358.562 807.701 353.861 803 348.062 803H44.9375C39.1385 803 34.4375 807.701 34.4375 813.5H14.4375ZM368.562 852H24.4375H368.562ZM44.9375 852C28.0928 852 14.4375 838.345 14.4375 821.5V813.5C14.4375 796.655 28.0928 783 44.9375 783V803C39.1385 803 34.4375 807.701 34.4375 813.5V831.5C34.4375 842.822 39.1385 852 44.9375 852ZM348.062 783C364.907 783 378.562 796.655 378.562 813.5V821.5C378.562 838.345 364.907 852 348.062 852C353.861 852 358.562 842.822 358.562 831.5V813.5C358.562 807.701 353.861 803 348.062 803V783Z" fill="#CFFF0F" mask="url(#path-26-outside-3_413_278)"/>
<mask id="path-28-outside-4_413_278" maskUnits="userSpaceOnUse" x="0" y="108" width="393" height="51" fill="black">
<rect fill="white" y="108" width="393" height="51"/>
<path d="M0 108H393V158H0V108Z"/>
</mask>
<path d="M0 108H393V158H0V108Z" fill="white"/>
<path d="M393 158V157H0V158V159H393V158Z" fill="#888888" mask="url(#path-28-outside-4_413_278)"/>
<path d="M131 157V154.5H20V157V159.5H131V157Z" fill="#CFFF0F"/>
<path d="M35.4734 135H34.5534L33.4734 128.41L31.6934 133.63H30.2734L28.5334 128.43L27.4134 135H26.4834V134.64L27.5334 128H29.3934L30.9734 132.66L32.5634 128H34.4334L35.4734 134.65C35.4734 134.76 35.4734 134.88 35.4734 135ZM38.7334 134.03H43.2834C43.9534 134.02 44.4934 133.48 44.4934 132.81V130.2C44.4934 129.67 43.9534 128.98 43.2834 128.98H38.7134C38.0334 128.98 37.4934 129.67 37.4934 130.21V132.79C37.4934 133.48 38.0334 134.03 38.7334 134.03ZM43.0334 135.01H38.9434C37.5934 135.01 36.4834 133.92 36.4834 132.57V130.45C36.4834 129.1 37.5934 128 38.9334 128H43.0234C44.3834 128 45.4734 129.1 45.4734 130.45C45.4834 131.15 45.4834 131.86 45.4834 132.56C45.4734 133.91 44.3834 135.01 43.0334 135.01ZM47.4134 135H46.4834V128H47.4434V133.67L54.5334 128H55.4834V135H54.5234V129.31L47.4134 135ZM72.5373 129.04H69.5273V129.2C69.5273 129.47 69.5373 129.73 69.5273 130C69.4773 131.26 69.0873 132.09 68.1773 133H72.5473C72.5773 132.78 72.5673 129.15 72.5373 129.04ZM68.5173 128H73.5373V133.01H74.4973V135H73.5373V134H66.5373V135H65.4973V133.01C65.5273 133.01 65.5973 133.01 65.6273 133.01C67.2273 133.02 68.5273 131.61 68.5273 130.04C68.5173 129.42 68.5173 128.79 68.5173 128.17C68.5173 128.12 68.5173 128.06 68.5173 128ZM76.5168 128.98V131.01H82.5268C82.5968 131.01 82.6668 131 82.7268 130.99C83.2368 130.87 83.5868 130.4 83.5268 129.9C83.4668 129.37 83.0368 128.98 82.5068 128.98H76.5168ZM82.4868 132.01H76.5168V135H75.5068V128H82.5168C83.5368 128 84.3868 128.78 84.4968 129.79C84.6168 130.87 83.8568 131.84 82.7868 131.99C82.6868 132 82.5868 132.01 82.4868 132.01ZM85.5068 128C85.8468 128 86.1768 128 86.5168 128C86.5168 128.03 86.5168 128.06 86.5168 128.09C86.5168 128.65 86.5168 129.21 86.5168 129.77C86.5168 130.46 87.0468 131.01 87.7468 131.01C89.6368 131.01 91.5168 131.01 93.4168 131.01C93.4368 131.01 93.4568 131.01 93.4868 131.01C93.4868 130 93.4868 129 93.4868 128C93.8268 128 94.1568 128 94.5068 128C94.5068 128.03 94.5068 128.05 94.5068 128.08C94.5068 129.67 94.5068 131.27 94.5068 132.86C94.4968 133.96 93.6568 134.88 92.5768 134.99C92.4968 134.99 92.4168 135 92.3368 135C90.0968 135 87.8568 135 85.6168 135C85.5868 135 85.5468 135 85.5068 135C85.5068 134.67 85.5068 134.35 85.5068 134.02C85.5368 134.02 85.5768 134.02 85.6068 134.02C87.8168 134.02 90.0268 134.02 92.2368 134.02C92.9668 134.02 93.4868 133.48 93.4868 132.76C93.4868 132.51 93.4868 132.26 93.4868 132C93.4568 132 93.4268 132 93.3968 132C91.4868 132 89.5768 132 87.6668 132C86.5168 132 85.5068 131.07 85.5068 129.9C85.5068 129.28 85.5068 128.66 85.5068 128.05C85.5068 128.03 85.5068 128.02 85.5068 128ZM103.847 131.48C103.897 131.53 103.937 131.57 103.967 131.61C104.487 132.21 104.647 132.91 104.387 133.65C104.087 134.5 103.347 135 102.457 135C100.277 135 97.8568 135 95.6768 135C95.6268 135 95.5768 135 95.5168 135C95.5168 134.65 95.5168 134.32 95.5168 133.97C95.5668 133.97 95.6268 133.96 95.6868 133.96C97.8568 133.96 100.257 133.96 102.427 133.96C102.547 133.96 102.657 133.96 102.767 133.93C103.197 133.83 103.507 133.39 103.497 132.95C103.487 132.5 103.167 132.1 102.727 132.01C102.677 131.99 102.617 132 102.567 132L98.9668 131.99L98.9468 130.97L102.527 130.96C102.987 130.96 103.387 130.65 103.477 130.2C103.597 129.57 103.137 129.02 102.477 129.02C100.167 129.01 97.8268 129.01 95.5168 129.01V128C97.6968 128 100.287 127.99 102.477 127.99C103.457 127.99 104.267 128.64 104.457 129.6C104.597 130.26 104.417 130.85 103.967 131.36C103.927 131.4 103.897 131.43 103.847 131.48ZM106.527 132V133.96H106.587C107.897 133.96 111.187 133.96 112.487 133.96C112.557 133.96 112.627 133.95 112.697 133.93C113.177 133.82 113.507 133.37 113.457 132.89C113.397 132.37 112.987 132 112.467 132C111.177 132 107.907 132 106.607 132H106.527ZM105.517 128H106.527V130.99H106.617C107.917 130.99 111.187 130.99 112.487 130.99C113.497 130.99 114.337 131.72 114.477 132.72C114.637 133.83 113.827 134.87 112.707 134.99C112.627 134.99 112.547 135 112.467 135C110.837 135 107.237 135 105.607 135H105.517V128ZM123.547 131.01V128.98H123.497C121.517 128.98 119.517 128.98 117.537 128.98C117.467 128.98 117.397 128.99 117.337 129.01C116.827 129.12 116.487 129.6 116.547 130.09C116.607 130.63 117.027 131.01 117.557 131.01C119.517 131.01 121.507 131.01 123.467 131.01H123.547ZM124.527 128V135H123.517V132.01H123.437C122.777 132.01 122.117 132.01 121.467 132.01C121.417 132.01 121.377 132.02 121.337 132.05C120.387 132.77 119.447 133.49 118.487 134.21C117.777 134.73 116.967 134.99 116.077 135C115.897 135 115.717 135 115.527 135V134.05C116.497 134.05 117.367 133.78 118.147 133.2C118.657 132.82 119.177 132.44 119.687 132.06C119.707 132.05 119.717 132.04 119.757 132.01H119.667C118.957 132.01 118.237 132.01 117.537 132C116.757 131.99 116.167 131.65 115.777 130.97C115.247 130.02 115.597 128.79 116.547 128.26C116.847 128.09 117.177 128 117.537 128C119.857 128 122.207 128 124.527 128Z" fill="#111827"/>
<path d="M170.33 131.48C170.38 131.53 170.42 131.57 170.45 131.61C170.97 132.21 171.13 132.91 170.87 133.65C170.57 134.5 169.83 135 168.94 135C166.76 135 164.34 135 162.16 135C162.11 135 162.06 135 162 135C162 134.65 162 134.32 162 133.97C162.05 133.97 162.11 133.96 162.17 133.96C164.34 133.96 166.74 133.96 168.91 133.96C169.03 133.96 169.14 133.96 169.25 133.93C169.68 133.83 169.99 133.39 169.98 132.95C169.97 132.5 169.65 132.1 169.21 132.01C169.16 131.99 169.1 132 169.05 132L165.45 131.99L165.43 130.97L169.01 130.96C169.47 130.96 169.87 130.65 169.96 130.2C170.08 129.57 169.62 129.02 168.96 129.02C166.65 129.01 164.31 129.01 162 129.01V128C164.18 128 166.77 127.99 168.96 127.99C169.94 127.99 170.75 128.64 170.94 129.6C171.08 130.26 170.9 130.85 170.45 131.36C170.41 131.4 170.38 131.43 170.33 131.48ZM174.01 134.02H178.59V132H174C173.45 132.01 173 132.46 173 133.01C173 133.57 173.45 134.02 174.01 134.02ZM179.6 133.99H181.01V135H179.48C179.36 134.96 179.24 134.94 179.13 134.88C178.83 134.72 178.66 134.47 178.59 134.14V135H173.86C173.8 134.99 173.75 134.98 173.7 134.97C172.62 134.8 171.87 133.77 172.03 132.69C172.17 131.69 173.02 130.95 174.04 130.95H178.59V130.27C178.59 129.56 178.06 129.02 177.34 129.02H172.99V128H177.63C177.67 128.01 177.72 128.01 177.76 128.02C178.84 128.18 179.6 129.07 179.6 130.16V133.99ZM189.99 135C189.99 133 189.99 131.01 189.99 129.01C187.67 129.01 185.34 129.01 183.01 129.01C183.01 131.01 183.01 133 183.01 135C182.67 135 182.34 135 182 135C182 132.67 182 130.34 182 128C185 128 188 128 191 128C191 130.33 191 132.67 191 135C190.67 135 190.33 135 189.99 135ZM193.01 128.98V131.01H199.02C199.09 131.01 199.16 131 199.22 130.99C199.73 130.87 200.08 130.4 200.02 129.9C199.96 129.37 199.53 128.98 199 128.98H193.01ZM198.98 132.01H193.01V135H192V128H199.01C200.03 128 200.88 128.78 200.99 129.79C201.11 130.87 200.35 131.84 199.28 131.99C199.18 132 199.08 132.01 198.98 132.01ZM204.25 134.03H208.8C209.47 134.02 210.01 133.48 210.01 132.81V130.2C210.01 129.67 209.47 128.98 208.8 128.98H204.23C203.55 128.98 203.01 129.67 203.01 130.21V132.79C203.01 133.48 203.55 134.03 204.25 134.03ZM208.55 135.01H204.46C203.11 135.01 202 133.92 202 132.57V130.45C202 129.1 203.11 128 204.45 128H208.54C209.9 128 210.99 129.1 210.99 130.45C211 131.15 211 131.86 211 132.56C210.99 133.91 209.9 135.01 208.55 135.01ZM213.98 135C213.8 134.96 213.61 134.94 213.43 134.87C212.52 134.52 212.01 133.76 212.01 132.8C212.01 132.03 212 131.26 212.01 130.49C212.02 129.48 212.48 128.74 213.35 128.27C213.68 128.09 214.04 128 214.42 128C215.8 128 217.19 128 218.58 128C219.77 128.01 220.79 128.91 220.96 130.09C220.97 130.17 220.99 130.26 220.99 130.34C220.99 130.55 220.99 130.77 220.99 130.99C220.65 130.99 220.31 130.99 219.96 130.99C219.96 130.96 219.96 130.93 219.96 130.9C219.96 130.62 219.97 130.34 219.94 130.06C219.89 129.46 219.36 129 218.76 129C218.4 129 218.03 129 217.67 129C216.53 129 215.39 129 214.25 129C213.61 129 213.12 129.41 213.01 130.04C212.99 130.17 213 130.31 212.99 130.44C212.99 131.21 212.98 131.98 212.98 132.75C212.98 133.45 213.52 133.99 214.21 133.99C215.79 133.99 217.37 133.99 218.95 133.99C219.51 133.99 219.93 133.58 219.96 133.02C219.96 133.02 219.96 133.01 219.97 133C220.3 133 220.64 133 221 133C220.98 133.15 220.97 133.3 220.94 133.44C220.75 134.27 220.05 134.89 219.21 134.99C219.19 134.99 219.18 135 219.16 135C217.43 135 215.7 135 213.98 135ZM223.02 132V133.96H223.08C224.39 133.96 225.7 133.96 227.01 133.96C227.07 133.96 227.14 133.95 227.21 133.93C227.69 133.82 228.02 133.37 227.97 132.89C227.91 132.37 227.5 132 226.99 132C225.69 132 224.4 132 223.1 132H223.02ZM222.11 135H222.01V128H223.01V130.99H223.11C224.4 130.99 225.69 130.99 226.99 130.99C228.01 130.99 228.84 131.71 228.99 132.71C229.16 133.77 228.4 134.81 227.35 134.97C227.22 134.99 227.1 135 226.97 135C225.35 135 223.73 135 222.11 135ZM230.02 135V128H230.99V135H230.02Z" fill="#6B7280"/>
<path d="M258.469 128C258.799 128 259.119 128 259.449 128C259.449 128.98 259.449 129.96 259.449 130.94C261.799 130.94 264.129 130.94 266.469 130.94C266.469 129.97 266.469 128.99 266.469 128.01C266.809 128.01 267.129 128.01 267.459 128.01C267.459 130.33 267.459 132.66 267.459 134.99C267.139 134.99 266.809 134.99 266.479 134.99C266.479 133.99 266.479 132.98 266.479 131.96C264.129 131.96 261.799 131.96 259.459 131.96C259.459 132.98 259.459 133.98 259.459 135C259.119 135 258.799 135 258.469 135C258.469 132.67 258.469 130.33 258.469 128ZM270.479 134.02H275.059V132H270.469C269.919 132.01 269.469 132.46 269.469 133.01C269.469 133.57 269.919 134.02 270.479 134.02ZM276.069 133.99H277.479V135H275.949C275.829 134.96 275.709 134.94 275.599 134.88C275.299 134.72 275.129 134.47 275.059 134.14V135H270.329C270.269 134.99 270.219 134.98 270.169 134.97C269.089 134.8 268.339 133.77 268.499 132.69C268.639 131.69 269.489 130.95 270.509 130.95H275.059V130.27C275.059 129.56 274.529 129.02 273.809 129.02H269.459V128H274.099C274.139 128.01 274.189 128.01 274.229 128.02C275.309 128.18 276.069 129.07 276.069 130.16V133.99ZM284.729 124.94C284.899 125.23 285.059 125.52 285.229 125.82C283.979 126.54 282.729 127.27 281.459 128C281.289 127.7 281.119 127.42 280.949 127.12C281.009 127.09 281.059 127.06 281.119 127.03C282.269 126.36 283.419 125.7 284.569 125.03C284.609 125.01 284.659 124.97 284.699 124.94C284.709 124.94 284.719 124.94 284.729 124.94ZM279.399 134.99L278.469 134.98V127.99H279.439V133.66L286.529 127.99H287.469V134.98L286.509 134.99L286.519 129.3L279.399 134.99ZM297.479 128C297.479 128.34 297.479 128.67 297.479 129.01C296.159 129.01 294.829 129.01 293.499 129.01C293.499 131.01 293.499 133 293.499 135C293.169 135 292.839 135 292.509 135C292.509 133.01 292.509 131.01 292.509 129.01C291.159 129.01 289.819 129.01 288.479 129.01C288.479 128.67 288.479 128.34 288.479 128C291.469 128 294.479 128 297.479 128ZM299.418 135H298.488V128H299.448V133.67L306.538 128H307.488V135H306.528V129.31L299.418 135ZM324.542 129.04H321.532V129.2C321.532 129.47 321.542 129.73 321.532 130C321.482 131.26 321.092 132.09 320.182 133H324.552C324.582 132.78 324.572 129.15 324.542 129.04ZM320.522 128H325.542V133.01H326.502V135H325.542V134H318.542V135H317.502V133.01C317.532 133.01 317.602 133.01 317.632 133.01C319.232 133.02 320.532 131.61 320.532 130.04C320.522 129.42 320.522 128.79 320.522 128.17C320.522 128.12 320.522 128.06 320.522 128ZM328.522 128.98V131.01H334.532C334.602 131.01 334.672 131 334.732 130.99C335.242 130.87 335.592 130.4 335.532 129.9C335.472 129.37 335.042 128.98 334.512 128.98H328.522ZM334.492 132.01H328.522V135H327.512V128H334.522C335.542 128 336.392 128.78 336.502 129.79C336.622 130.87 335.862 131.84 334.792 131.99C334.692 132 334.592 132.01 334.492 132.01ZM337.512 128C337.852 128 338.182 128 338.522 128C338.522 128.03 338.522 128.06 338.522 128.09C338.522 128.65 338.522 129.21 338.522 129.77C338.522 130.46 339.052 131.01 339.752 131.01C341.642 131.01 343.522 131.01 345.422 131.01C345.442 131.01 345.462 131.01 345.492 131.01C345.492 130 345.492 129 345.492 128C345.832 128 346.162 128 346.512 128C346.512 128.03 346.512 128.05 346.512 128.08C346.512 129.67 346.512 131.27 346.512 132.86C346.502 133.96 345.662 134.88 344.582 134.99C344.502 134.99 344.422 135 344.342 135C342.102 135 339.862 135 337.622 135C337.592 135 337.552 135 337.512 135C337.512 134.67 337.512 134.35 337.512 134.02C337.542 134.02 337.582 134.02 337.612 134.02C339.822 134.02 342.032 134.02 344.242 134.02C344.972 134.02 345.492 133.48 345.492 132.76C345.492 132.51 345.492 132.26 345.492 132C345.462 132 345.432 132 345.402 132C343.492 132 341.582 132 339.672 132C338.522 132 337.512 131.07 337.512 129.9C337.512 129.28 337.512 128.66 337.512 128.05C337.512 128.03 337.512 128.02 337.512 128ZM355.852 131.48C355.902 131.53 355.942 131.57 355.972 131.61C356.492 132.21 356.652 132.91 356.392 133.65C356.092 134.5 355.352 135 354.462 135C352.282 135 349.862 135 347.682 135C347.632 135 347.582 135 347.522 135C347.522 134.65 347.522 134.32 347.522 133.97C347.572 133.97 347.632 133.96 347.692 133.96C349.862 133.96 352.262 133.96 354.432 133.96C354.552 133.96 354.662 133.96 354.772 133.93C355.202 133.83 355.512 133.39 355.502 132.95C355.492 132.5 355.172 132.1 354.732 132.01C354.682 131.99 354.622 132 354.572 132L350.972 131.99L350.952 130.97L354.532 130.96C354.992 130.96 355.392 130.65 355.482 130.2C355.602 129.57 355.142 129.02 354.482 129.02C352.172 129.01 349.832 129.01 347.522 129.01V128C349.702 128 352.292 127.99 354.482 127.99C355.462 127.99 356.272 128.64 356.462 129.6C356.602 130.26 356.422 130.85 355.972 131.36C355.932 131.4 355.902 131.43 355.852 131.48ZM358.541 131.01H365.521V130.22C365.521 129.53 364.971 128.99 364.281 128.99H359.771C359.081 128.99 358.541 129.53 358.541 130.23V131.01ZM366.531 135H359.501C359.331 134.96 359.141 134.94 358.971 134.87C358.041 134.52 357.531 133.78 357.531 132.8C357.531 132.03 357.521 131.25 357.531 130.48C357.541 129.48 358.001 128.74 358.881 128.27C359.211 128.09 359.561 128.01 359.931 128H364.111C365.301 128.01 366.331 128.91 366.501 130.09C366.511 130.15 366.521 130.21 366.531 130.27V132.04C366.271 132.04 366.011 132.03 365.751 132.03C364.401 132.02 363.071 132.01 361.721 132.01C360.811 132.01 359.891 132.02 358.991 132.03C358.841 132.04 358.691 132.03 358.541 132.03V132.76C358.541 133.48 359.081 134.02 359.791 134.02H366.531V135ZM373.781 124.94C373.951 125.23 374.111 125.52 374.281 125.82C373.031 126.54 371.781 127.27 370.511 128C370.341 127.7 370.171 127.42 370.001 127.12C370.061 127.09 370.111 127.06 370.171 127.03C371.321 126.36 372.471 125.7 373.621 125.03C373.661 125.01 373.711 124.97 373.751 124.94C373.761 124.94 373.771 124.94 373.781 124.94ZM368.451 134.99L367.521 134.98V127.99H368.491V133.66L375.581 127.99H376.521V134.98L375.561 134.99L375.571 129.3L368.451 134.99Z" fill="#6B7280"/>
<path d="M0 158H393" stroke="#E5E7EB"/>
<path d="M35.2695 184.277H357.731C365.803 184.277 372.347 190.817 372.347 198.883V239.167C372.347 247.234 365.803 253.775 357.731 253.775H35.2695C27.1975 253.775 20.6543 247.234 20.6543 239.167V198.883C20.6544 190.817 27.1975 184.277 35.2695 184.277Z" fill="white" stroke="black"/>
<path d="M50.3853 239.168C61.516 239.168 70.5391 230.15 70.5391 219.025C70.5391 207.901 61.516 198.883 50.3853 198.883C39.2546 198.883 30.2314 207.901 30.2314 219.025C30.2314 230.15 39.2546 239.168 50.3853 239.168Z" fill="#E5E7EB"/>
<path d="M50.3849 212.479C51.3203 212.479 52.2174 212.851 52.8788 213.512C53.5402 214.173 53.9118 215.07 53.9118 216.004C53.9118 216.939 53.5402 217.836 52.8788 218.497C52.2174 219.158 51.3203 219.529 50.3849 219.529C49.4495 219.529 48.5524 219.158 47.891 218.497C47.2296 217.836 46.858 216.939 46.858 216.004C46.858 215.07 47.2296 214.173 47.891 213.512C48.5524 212.851 49.4495 212.479 50.3849 212.479ZM43.3311 226.579C43.3311 224.444 46.5154 223.054 50.3849 223.054C54.2544 223.054 57.4387 224.444 57.4387 226.579V228.09H43.3311V226.579Z" fill="black"/>
<path d="M88.51 221.02H93.09V219H88.5C87.95 219.01 87.5 219.46 87.5 220.01C87.5 220.57 87.95 221.02 88.51 221.02ZM94.1 220.99H95.51V222H93.98C93.86 221.96 93.74 221.94 93.63 221.88C93.33 221.72 93.16 221.47 93.09 221.14V222H88.36C88.3 221.99 88.25 221.98 88.2 221.97C87.12 221.8 86.37 220.77 86.53 219.69C86.67 218.69 87.52 217.95 88.54 217.95H93.09V217.27C93.09 216.56 92.56 216.02 91.84 216.02H87.49V215H92.13C92.17 215.01 92.22 215.01 92.26 215.02C93.34 215.18 94.1 216.07 94.1 217.16V220.99ZM96.5 215C96.83 215 97.15 215 97.48 215C97.48 215.98 97.48 216.96 97.48 217.94C99.83 217.94 102.16 217.94 104.5 217.94C104.5 216.97 104.5 215.99 104.5 215.01C104.84 215.01 105.16 215.01 105.49 215.01C105.49 217.33 105.49 219.66 105.49 221.99C105.17 221.99 104.84 221.99 104.51 221.99C104.51 220.99 104.51 219.98 104.51 218.96C102.16 218.96 99.83 218.96 97.49 218.96C97.49 219.98 97.49 220.98 97.49 222C97.15 222 96.83 222 96.5 222C96.5 219.67 96.5 217.33 96.5 215ZM106.5 215C106.83 215 107.15 215 107.48 215C107.48 215.98 107.48 216.96 107.48 217.94C109.83 217.94 112.16 217.94 114.5 217.94C114.5 216.97 114.5 215.99 114.5 215.01C114.84 215.01 115.16 215.01 115.49 215.01C115.49 217.33 115.49 219.66 115.49 221.99C115.17 221.99 114.84 221.99 114.51 221.99C114.51 220.99 114.51 219.98 114.51 218.96C112.16 218.96 109.83 218.96 107.49 218.96C107.49 219.98 107.49 220.98 107.49 222C107.15 222 106.83 222 106.5 222C106.5 219.67 106.5 217.33 106.5 215ZM118.51 221.02H123.09V219H118.5C117.95 219.01 117.5 219.46 117.5 220.01C117.5 220.57 117.95 221.02 118.51 221.02ZM124.1 220.99H125.51V222H123.98C123.86 221.96 123.74 221.94 123.63 221.88C123.33 221.72 123.16 221.47 123.09 221.14V222H118.36C118.3 221.99 118.25 221.98 118.2 221.97C117.12 221.8 116.37 220.77 116.53 219.69C116.67 218.69 117.52 217.95 118.54 217.95H123.09V217.27C123.09 216.56 122.56 216.02 121.84 216.02H117.49V215H122.13C122.17 215.01 122.22 215.01 122.26 215.02C123.34 215.18 124.1 216.07 124.1 217.16V220.99ZM139.874 219C138.994 219 138.104 219 137.224 219C136.884 219 136.584 219.25 136.524 219.58C136.404 220.29 136.974 220.99 137.704 220.99C139.314 220.99 140.934 220.99 142.544 220.99C142.824 220.99 143.074 220.88 143.254 220.66C143.534 220.33 143.594 219.96 143.414 219.57C143.234 219.2 142.924 219.01 142.504 219C141.624 219 140.754 219 139.874 219ZM142.504 215H143.514C143.504 216.11 142.614 216.99 141.514 216.99C140.254 216.99 138.994 216.99 137.734 216.99C137.034 216.99 136.514 217.54 136.514 218.23C136.664 218.18 136.804 218.11 136.954 218.07C137.124 218.03 137.304 218 137.474 218C139.164 217.99 140.854 217.99 142.544 218C143.544 218 144.404 218.78 144.504 219.78C144.614 220.87 143.884 221.81 142.804 221.98C142.714 221.99 142.624 222 142.534 222C140.894 222 139.264 222 137.624 222C136.544 222 135.624 221.16 135.514 220.09C135.514 220.07 135.504 220.05 135.504 220.03V217.93C135.514 217.89 135.514 217.85 135.524 217.81C135.674 216.75 136.574 215.96 137.644 215.96C138.944 215.96 140.234 215.96 141.524 215.96C142.074 215.96 142.494 215.55 142.504 215ZM146.543 218.01H153.523V217.22C153.523 216.53 152.973 215.99 152.283 215.99H147.773C147.083 215.99 146.543 216.53 146.543 217.23V218.01ZM154.533 222H147.503C147.333 221.96 147.143 221.94 146.973 221.87C146.043 221.52 145.533 220.78 145.533 219.8C145.533 219.03 145.523 218.25 145.533 217.48C145.543 216.48 146.003 215.74 146.883 215.27C147.213 215.09 147.563 215.01 147.933 215H152.113C153.303 215.01 154.333 215.91 154.503 217.09C154.513 217.15 154.523 217.21 154.533 217.27V219.04C154.273 219.04 154.013 219.03 153.753 219.03C152.403 219.02 151.073 219.01 149.723 219.01C148.813 219.01 147.893 219.02 146.993 219.03C146.843 219.04 146.693 219.03 146.543 219.03V219.76C146.543 220.48 147.083 221.02 147.793 221.02H154.533V222ZM164.513 215C164.513 216 164.513 216.99 164.513 217.98C164.193 217.98 163.883 217.98 163.543 217.98C163.543 217.77 163.543 217.55 163.543 217.34C163.543 217.12 163.543 216.9 163.543 216.68C163.543 216.46 163.543 216.24 163.543 216.01C161.213 216.01 158.873 216.01 156.533 216.01C156.533 216.45 156.533 216.89 156.533 217.33C156.533 217.55 156.533 217.77 156.533 217.99C156.533 218.22 156.533 218.44 156.533 218.67C156.533 218.89 156.533 219.11 156.533 219.33C156.533 219.55 156.533 219.78 156.533 220C156.533 220.22 156.533 220.44 156.533 220.66C156.533 220.88 156.533 221.11 156.533 221.33C156.533 221.55 156.533 221.77 156.533 222C156.203 222 155.843 222 155.523 222V215C158.503 215 161.533 215 164.513 215ZM165.523 215C165.863 215 166.193 215 166.533 215C166.533 215.03 166.533 215.06 166.533 215.09C166.533 215.65 166.533 216.21 166.533 216.77C166.533 217.46 167.063 218.01 167.763 218.01C169.653 218.01 171.533 218.01 173.433 218.01C173.453 218.01 173.473 218.01 173.503 218.01C173.503 217 173.503 216 173.503 215C173.843 215 174.173 215 174.523 215C174.523 215.03 174.523 215.05 174.523 215.08C174.523 216.67 174.523 218.27 174.523 219.86C174.513 220.96 173.673 221.88 172.593 221.99C172.513 221.99 172.433 222 172.353 222C170.113 222 167.873 222 165.633 222C165.603 222 165.563 222 165.523 222C165.523 221.67 165.523 221.35 165.523 221.02C165.553 221.02 165.593 221.02 165.623 221.02C167.833 221.02 170.043 221.02 172.253 221.02C172.983 221.02 173.503 220.48 173.503 219.76C173.503 219.51 173.503 219.26 173.503 219C173.473 219 173.443 219 173.413 219C171.503 219 169.593 219 167.683 219C166.533 219 165.523 218.07 165.523 216.9C165.523 216.28 165.523 215.66 165.523 215.05C165.523 215.03 165.523 215.02 165.523 215ZM175.523 215C175.853 215 176.173 215 176.503 215C176.503 215.98 176.503 216.96 176.503 217.94C178.853 217.94 181.183 217.94 183.523 217.94C183.523 216.97 183.523 215.99 183.523 215.01C183.863 215.01 184.183 215.01 184.513 215.01C184.513 217.33 184.513 219.66 184.513 221.99C184.193 221.99 183.863 221.99 183.533 221.99C183.533 220.99 183.533 219.98 183.533 218.96C181.183 218.96 178.853 218.96 176.513 218.96C176.513 219.98 176.513 220.98 176.513 222C176.173 222 175.853 222 175.523 222C175.523 219.67 175.523 217.33 175.523 215ZM187.773 221.03H192.323C192.993 221.02 193.533 220.48 193.533 219.81V217.2C193.533 216.67 192.993 215.98 192.323 215.98H187.753C187.073 215.98 186.533 216.67 186.533 217.21V219.79C186.533 220.48 187.073 221.03 187.773 221.03ZM192.073 222.01H187.983C186.633 222.01 185.523 220.92 185.523 219.57V217.45C185.523 216.1 186.633 215 187.973 215H192.063C193.423 215 194.513 216.1 194.513 217.45C194.523 218.15 194.523 218.86 194.523 219.56C194.513 220.91 193.423 222.01 192.073 222.01ZM196.503 219.03V220.98H196.663C198.593 220.98 200.513 220.98 202.433 220.98C202.513 220.98 202.593 220.98 202.673 220.97C203.183 220.89 203.563 220.38 203.483 219.87C203.403 219.36 203.013 219.02 202.493 219.02C200.533 219.02 198.583 219.02 196.623 219.02C196.583 219.02 196.543 219.03 196.503 219.03ZM196.533 216.02V217.98H201.453C201.493 217.98 201.523 217.99 201.563 217.98C202.133 217.95 202.563 217.42 202.473 216.86C202.393 216.35 201.993 216.01 201.473 216.01C199.873 216.01 198.263 216.01 196.663 216.01C196.623 216.01 196.573 216.01 196.533 216.02ZM195.523 222V215C197.503 215 199.483 215 201.453 215.01C202.163 215.01 202.733 215.31 203.123 215.9C203.543 216.54 203.573 217.22 203.243 217.91C203.223 217.94 203.203 217.97 203.193 218C203.173 218.03 203.163 218.05 203.143 218.09C203.183 218.11 203.223 218.13 203.273 218.15C204.023 218.5 204.443 219.09 204.493 219.91C204.553 220.86 203.863 221.75 202.923 221.94C202.753 221.97 202.573 221.99 202.403 221.99C200.173 221.99 197.943 221.99 195.723 221.99C195.653 221.99 195.593 222 195.523 222ZM207.514 221.02H212.094V219H207.504C206.954 219.01 206.504 219.46 206.504 220.01C206.504 220.57 206.954 221.02 207.514 221.02ZM213.104 220.99H214.514V222H212.984C212.864 221.96 212.744 221.94 212.634 221.88C212.334 221.72 212.164 221.47 212.094 221.14V222H207.364C207.304 221.99 207.254 221.98 207.204 221.97C206.124 221.8 205.374 220.77 205.534 219.69C205.674 218.69 206.524 217.95 207.544 217.95H212.094V217.27C212.094 216.56 211.564 216.02 210.844 216.02H206.494V215H211.134C211.174 215.01 211.224 215.01 211.264 215.02C212.344 215.18 213.104 216.07 213.104 217.16V220.99Z" fill="#111827"/>
<path d="M344.632 214.997C345.74 214.997 346.647 214.091 346.647 212.983C346.647 211.875 345.74 210.969 344.632 210.969C343.523 210.969 342.616 211.875 342.616 212.983C342.616 214.091 343.523 214.997 344.632 214.997ZM344.632 217.011C343.523 217.011 342.616 217.918 342.616 219.026C342.616 220.133 343.523 221.04 344.632 221.04C345.74 221.04 346.647 220.133 346.647 219.026C346.647 217.918 345.74 217.011 344.632 217.011ZM344.632 223.054C343.523 223.054 342.616 223.96 342.616 225.068C342.616 226.176 343.523 227.082 344.632 227.082C345.74 227.082 346.647 226.176 346.647 225.068C346.647 223.96 345.74 223.054 344.632 223.054Z" fill="black"/>
<path d="M35.2695 269.881H357.731C365.803 269.881 372.347 276.421 372.347 284.488V324.772C372.347 332.839 365.803 339.379 357.731 339.379H35.2695C27.1975 339.379 20.6543 332.839 20.6543 324.772V284.488C20.6544 276.421 27.1975 269.881 35.2695 269.881Z" fill="white" stroke="black"/>
<path d="M50.3853 324.772C61.516 324.772 70.5391 315.754 70.5391 304.63C70.5391 293.506 61.516 284.488 50.3853 284.488C39.2546 284.488 30.2314 293.506 30.2314 304.63C30.2314 315.754 39.2546 324.772 50.3853 324.772Z" fill="#CFFF0F" fill-opacity="0.3"/>
<path d="M50.3849 298.084C51.3203 298.084 52.2174 298.455 52.8788 299.116C53.5402 299.777 53.9118 300.674 53.9118 301.609C53.9118 302.544 53.5402 303.44 52.8788 304.101C52.2174 304.762 51.3203 305.134 50.3849 305.134C49.4495 305.134 48.5524 304.762 47.891 304.101C47.2296 303.44 46.858 302.544 46.858 301.609C46.858 300.674 47.2296 299.777 47.891 299.116C48.5524 298.455 49.4495 298.084 50.3849 298.084ZM43.3311 312.184C43.3311 310.048 46.5154 308.659 50.3849 308.659C54.2544 308.659 57.4387 310.048 57.4387 312.184V313.694H43.3311V312.184Z" fill="black"/>
<path d="M88.48 307C88.3 306.96 88.11 306.94 87.93 306.87C87.02 306.52 86.51 305.76 86.51 304.8C86.51 304.03 86.5 303.26 86.51 302.49C86.52 301.48 86.98 300.74 87.85 300.27C88.18 300.09 88.54 300 88.92 300C90.3 300 91.69 300 93.08 300C94.27 300.01 95.29 300.91 95.46 302.09C95.47 302.17 95.49 302.26 95.49 302.34C95.49 302.55 95.49 302.77 95.49 302.99C95.15 302.99 94.81 302.99 94.46 302.99C94.46 302.96 94.46 302.93 94.46 302.9C94.46 302.62 94.47 302.34 94.44 302.06C94.39 301.46 93.86 301 93.26 301C92.9 301 92.53 301 92.17 301C91.03 301 89.89 301 88.75 301C88.11 301 87.62 301.41 87.51 302.04C87.49 302.17 87.5 302.31 87.49 302.44C87.49 303.21 87.48 303.98 87.48 304.75C87.48 305.45 88.02 305.99 88.71 305.99C90.29 305.99 91.87 305.99 93.45 305.99C94.01 305.99 94.43 305.58 94.46 305.02C94.46 305.02 94.46 305.01 94.47 305C94.8 305 95.14 305 95.5 305C95.48 305.15 95.47 305.3 95.44 305.44C95.25 306.27 94.55 306.89 93.71 306.99C93.69 306.99 93.68 307 93.66 307C91.93 307 90.2 307 88.48 307ZM97.5298 303.01H104.51V302.22C104.51 301.53 103.96 300.99 103.27 300.99H98.7598C98.0698 300.99 97.5298 301.53 97.5298 302.23V303.01ZM105.52 307H98.4898C98.3198 306.96 98.1298 306.94 97.9598 306.87C97.0298 306.52 96.5198 305.78 96.5198 304.8C96.5198 304.03 96.5098 303.25 96.5198 302.48C96.5298 301.48 96.9898 300.74 97.8698 300.27C98.1998 300.09 98.5498 300.01 98.9198 300H103.1C104.29 300.01 105.32 300.91 105.49 302.09C105.5 302.15 105.51 302.21 105.52 302.27V304.04C105.26 304.04 105 304.03 104.74 304.03C103.39 304.02 102.06 304.01 100.71 304.01C99.7998 304.01 98.8798 304.02 97.9798 304.03C97.8298 304.04 97.6798 304.03 97.5298 304.03V304.76C97.5298 305.48 98.0698 306.02 98.7798 306.02H105.52V307ZM107.52 300.98V303.01H113.53C113.6 303.01 113.67 303 113.73 302.99C114.24 302.87 114.59 302.4 114.53 301.9C114.47 301.37 114.04 300.98 113.51 300.98H107.52ZM113.49 304.01H107.52V307H106.51V300H113.52C114.54 300 115.39 300.78 115.5 301.79C115.62 302.87 114.86 303.84 113.79 303.99C113.69 304 113.59 304.01 113.49 304.01ZM125.5 300C125.5 301 125.5 301.99 125.5 302.98C125.18 302.98 124.87 302.98 124.53 302.98C124.53 302.77 124.53 302.55 124.53 302.34C124.53 302.12 124.53 301.9 124.53 301.68C124.53 301.46 124.53 301.24 124.53 301.01C122.2 301.01 119.86 301.01 117.52 301.01C117.52 301.45 117.52 301.89 117.52 302.33C117.52 302.55 117.52 302.77 117.52 302.99C117.52 303.22 117.52 303.44 117.52 303.67C117.52 303.89 117.52 304.11 117.52 304.33C117.52 304.55 117.52 304.78 117.52 305C117.52 305.22 117.52 305.44 117.52 305.66C117.52 305.88 117.52 306.11 117.52 306.33C117.52 306.55 117.52 306.77 117.52 307C117.19 307 116.83 307 116.51 307V300C119.49 300 122.52 300 125.5 300ZM127.53 303.01H134.51V302.22C134.51 301.53 133.96 300.99 133.27 300.99H128.76C128.07 300.99 127.53 301.53 127.53 302.23V303.01ZM135.52 307H128.49C128.32 306.96 128.13 306.94 127.96 306.87C127.03 306.52 126.52 305.78 126.52 304.8C126.52 304.03 126.51 303.25 126.52 302.48C126.53 301.48 126.99 300.74 127.87 300.27C128.2 300.09 128.55 300.01 128.92 300H133.1C134.29 300.01 135.32 300.91 135.49 302.09C135.5 302.15 135.51 302.21 135.52 302.27V304.04C135.26 304.04 135 304.03 134.74 304.03C133.39 304.02 132.06 304.01 130.71 304.01C129.8 304.01 128.88 304.02 127.98 304.03C127.83 304.04 127.68 304.03 127.53 304.03V304.76C127.53 305.48 128.07 306.02 128.78 306.02H135.52V307ZM142.77 296.94C142.94 297.23 143.1 297.52 143.27 297.82C142.02 298.54 140.77 299.27 139.5 300C139.33 299.7 139.16 299.42 138.99 299.12C139.05 299.09 139.1 299.06 139.16 299.03C140.31 298.36 141.46 297.7 142.61 297.03C142.65 297.01 142.7 296.97 142.74 296.94C142.75 296.94 142.76 296.94 142.77 296.94ZM137.44 306.99L136.51 306.98V299.99H137.48V305.66L144.57 299.99H145.51V306.98L144.55 306.99L144.56 301.3L137.44 306.99ZM157.503 307C157.323 306.96 157.133 306.94 156.953 306.87C156.043 306.52 155.533 305.76 155.533 304.8C155.533 304.03 155.523 303.26 155.533 302.49C155.543 301.48 156.003 300.74 156.873 300.27C157.203 300.09 157.563 300 157.943 300C159.323 300 160.713 300 162.103 300C163.293 300.01 164.313 300.91 164.483 302.09C164.493 302.17 164.513 302.26 164.513 302.34C164.513 302.55 164.513 302.77 164.513 302.99C164.173 302.99 163.833 302.99 163.483 302.99C163.483 302.96 163.483 302.93 163.483 302.9C163.483 302.62 163.493 302.34 163.463 302.06C163.413 301.46 162.883 301 162.283 301C161.923 301 161.553 301 161.193 301C160.053 301 158.913 301 157.773 301C157.133 301 156.643 301.41 156.533 302.04C156.513 302.17 156.523 302.31 156.513 302.44C156.513 303.21 156.503 303.98 156.503 304.75C156.503 305.45 157.043 305.99 157.733 305.99C159.313 305.99 160.893 305.99 162.473 305.99C163.033 305.99 163.453 305.58 163.483 305.02C163.483 305.02 163.483 305.01 163.493 305C163.823 305 164.163 305 164.523 305C164.503 305.15 164.493 305.3 164.463 305.44C164.273 306.27 163.573 306.89 162.733 306.99C162.713 306.99 162.703 307 162.683 307C160.953 307 159.223 307 157.503 307ZM173.523 307C173.523 305 173.523 303.01 173.523 301.01C171.203 301.01 168.873 301.01 166.543 301.01C166.543 303.01 166.543 305 166.543 307C166.203 307 165.873 307 165.533 307C165.533 304.67 165.533 302.34 165.533 300C168.533 300 171.533 300 174.533 300C174.533 302.33 174.533 304.67 174.533 307C174.203 307 173.863 307 173.523 307ZM176.543 300.98V303.01H182.553C182.623 303.01 182.693 303 182.753 302.99C183.263 302.87 183.613 302.4 183.553 301.9C183.493 301.37 183.063 300.98 182.533 300.98H176.543ZM182.513 304.01H176.543V307H175.533V300H182.543C183.563 300 184.413 300.78 184.523 301.79C184.643 302.87 183.883 303.84 182.813 303.99C182.713 304 182.613 304.01 182.513 304.01ZM186.463 307H185.533V300H186.493V305.67L193.583 300H194.533V307H193.573V301.31L186.463 307ZM195.533 300C195.863 300 196.183 300 196.513 300C196.513 300.98 196.513 301.96 196.513 302.94C198.863 302.94 201.193 302.94 203.533 302.94C203.533 301.97 203.533 300.99 203.533 300.01C203.873 300.01 204.193 300.01 204.523 300.01C204.523 302.33 204.523 304.66 204.523 306.99C204.203 306.99 203.873 306.99 203.543 306.99C203.543 305.99 203.543 304.98 203.543 303.96C201.193 303.96 198.863 303.96 196.523 303.96C196.523 304.98 196.523 305.98 196.523 307C196.183 307 195.863 307 195.533 307C195.533 304.67 195.533 302.33 195.533 300ZM214.533 300C214.533 300.34 214.533 300.67 214.533 301.01C213.213 301.01 211.883 301.01 210.553 301.01C210.553 303.01 210.553 305 210.553 307C210.223 307 209.893 307 209.563 307C209.563 305.01 209.563 303.01 209.563 301.01C208.213 301.01 206.873 301.01 205.533 301.01C205.533 300.67 205.533 300.34 205.533 300C208.523 300 211.533 300 214.533 300ZM216.563 303.01H223.543V302.22C223.543 301.53 222.993 300.99 222.303 300.99H217.793C217.103 300.99 216.563 301.53 216.563 302.23V303.01ZM224.553 307H217.523C217.353 306.96 217.163 306.94 216.993 306.87C216.063 306.52 215.553 305.78 215.553 304.8C215.553 304.03 215.543 303.25 215.553 302.48C215.563 301.48 216.023 300.74 216.903 300.27C217.233 300.09 217.583 300.01 217.953 300H222.133C223.323 300.01 224.353 300.91 224.523 302.09C224.533 302.15 224.543 302.21 224.553 302.27V304.04C224.293 304.04 224.033 304.03 223.773 304.03C222.423 304.02 221.093 304.01 219.743 304.01C218.833 304.01 217.913 304.02 217.013 304.03C216.863 304.04 216.713 304.03 216.563 304.03V304.76C216.563 305.48 217.103 306.02 217.813 306.02H224.553V307ZM226.553 300.98V303.01H232.563C232.633 303.01 232.703 303 232.763 302.99C233.273 302.87 233.623 302.4 233.563 301.9C233.503 301.37 233.073 300.98 232.543 300.98H226.553ZM232.523 304.01H226.553V307H225.543V300H232.553C233.573 300 234.423 300.78 234.533 301.79C234.653 302.87 233.893 303.84 232.823 303.99C232.723 304 232.623 304.01 232.523 304.01Z" fill="#111827"/>
<path d="M344.632 300.602C345.74 300.602 346.647 299.695 346.647 298.587C346.647 297.48 345.74 296.573 344.632 296.573C343.523 296.573 342.616 297.48 342.616 298.587C342.616 299.695 343.523 300.602 344.632 300.602ZM344.632 302.616C343.523 302.616 342.616 303.522 342.616 304.63C342.616 305.738 343.523 306.644 344.632 306.644C345.74 306.644 346.647 305.738 346.647 304.63C346.647 303.522 345.74 302.616 344.632 302.616ZM344.632 308.659C343.523 308.659 342.616 309.565 342.616 310.673C342.616 311.781 343.523 312.687 344.632 312.687C345.74 312.687 346.647 311.781 346.647 310.673C346.647 309.565 345.74 308.659 344.632 308.659Z" fill="black"/>
</g>
<rect x="0.5" y="0.5" width="392" height="851" rx="19.5" stroke="black" stroke-opacity="0.29"/>
<defs>
<filter id="filter0_f_413_278" x="-236.07" y="387.978" width="732.889" height="604.143" filterUnits="userSpaceOnUse" color-interpolation-filters="sRGB">
<feFlood flood-opacity="0" result="BackgroundImageFix"/>
<feBlend mode="normal" in="SourceGraphic" in2="BackgroundImageFix" result="shape"/>
<feGaussianBlur stdDeviation="3.85" result="effect1_foregroundBlur_413_278"/>
</filter>
<pattern id="pattern0_413_278" patternContentUnits="objectBoundingBox" width="1" height="1">
<use xlink:href="#image0_413_278" transform="scale(0.000999001 0.00142095)"/>
</pattern>
<filter id="filter1_f_413_278" x="-185.854" y="-10.4144" width="714.554" height="571.114" filterUnits="userSpaceOnUse" color-interpolation-filters="sRGB">
<feFlood flood-opacity="0" result="BackgroundImageFix"/>
<feBlend mode="normal" in="SourceGraphic" in2="BackgroundImageFix" result="shape"/>
<feGaussianBlur stdDeviation="3.85" result="effect1_foregroundBlur_413_278"/>
</filter>
<pattern id="pattern1_413_278" patternContentUnits="objectBoundingBox" width="1" height="1">
<use xlink:href="#image1_413_278" transform="scale(0.000999001 0.00142095)"/>
</pattern>
<filter id="filter2_d_413_278" x="47.0998" y="802.1" width="36.8004" height="38.8004" filterUnits="userSpaceOnUse" color-interpolation-filters="sRGB">
<feFlood flood-opacity="0" result="BackgroundImageFix"/>
<feColorMatrix in="SourceAlpha" type="matrix" values="0 0 0 0 0 0 0 0 0 0 0 0 0 0 0 0 0 0 127 0" result="hardAlpha"/>
<feOffset dy="1"/>
<feGaussianBlur stdDeviation="2.85"/>
<feComposite in2="hardAlpha" operator="out"/>
<feColorMatrix type="matrix" values="0 0 0 0 0 0 0 0 0 0 0 0 0 0 0 0 0 0 0.6 0"/>
<feBlend mode="normal" in2="BackgroundImageFix" result="effect1_dropShadow_413_278"/>
<feBlend mode="normal" in="SourceGraphic" in2="effect1_dropShadow_413_278" result="shape"/>
</filter>
<filter id="filter3_d_413_278" x="115.43" y="802.1" width="31.3893" height="38.8009" filterUnits="userSpaceOnUse" color-interpolation-filters="sRGB">
<feFlood flood-opacity="0" result="BackgroundImageFix"/>
<feColorMatrix in="SourceAlpha" type="matrix" values="0 0 0 0 0 0 0 0 0 0 0 0 0 0 0 0 0 0 127 0" result="hardAlpha"/>
<feOffset dy="1"/>
<feGaussianBlur stdDeviation="2.85"/>
<feComposite in2="hardAlpha" operator="out"/>
<feColorMatrix type="matrix" values="0 0 0 0 0 0 0 0 0 0 0 0 0 0 0 0 0 0 0.6 0"/>
<feBlend mode="normal" in2="BackgroundImageFix" result="effect1_dropShadow_413_278"/>
<feBlend mode="normal" in="SourceGraphic" in2="effect1_dropShadow_413_278" result="shape"/>
</filter>
<filter id="filter4_d_413_278" x="179.331" y="804.1" width="36.8385" height="34.8004" filterUnits="userSpaceOnUse" color-interpolation-filters="sRGB">
<feFlood flood-opacity="0" result="BackgroundImageFix"/>
<feColorMatrix in="SourceAlpha" type="matrix" values="0 0 0 0 0 0 0 0 0 0 0 0 0 0 0 0 0 0 127 0" result="hardAlpha"/>
<feOffset dy="1"/>
<feGaussianBlur stdDeviation="2.85"/>
<feComposite in2="hardAlpha" operator="out"/>
<feColorMatrix type="matrix" values="0 0 0 0 0 0 0 0 0 0 0 0 0 0 0 0 0 0 0.6 0"/>
<feBlend mode="normal" in2="BackgroundImageFix" result="effect1_dropShadow_413_278"/>
<feBlend mode="normal" in="SourceGraphic" in2="effect1_dropShadow_413_278" result="shape"/>
</filter>
<filter id="filter5_d_413_278" x="248.475" y="803.111" width="36.8004" height="36.7774" filterUnits="userSpaceOnUse" color-interpolation-filters="sRGB">
<feFlood flood-opacity="0" result="BackgroundImageFix"/>
<feColorMatrix in="SourceAlpha" type="matrix" values="0 0 0 0 0 0 0 0 0 0 0 0 0 0 0 0 0 0 127 0" result="hardAlpha"/>
<feOffset dy="1"/>
<feGaussianBlur stdDeviation="2.85"/>
<feComposite in2="hardAlpha" operator="out"/>
<feColorMatrix type="matrix" values="0 0 0 0 0 0 0 0 0 0 0 0 0 0 0 0 0 0 0.6 0"/>
<feBlend mode="normal" in2="BackgroundImageFix" result="effect1_dropShadow_413_278"/>
<feBlend mode="normal" in="SourceGraphic" in2="effect1_dropShadow_413_278" result="shape"/>
</filter>
<filter id="filter6_d_413_278" x="316.6" y="805.6" width="29.3004" height="31.8004" filterUnits="userSpaceOnUse" color-interpolation-filters="sRGB">
<feFlood flood-opacity="0" result="BackgroundImageFix"/>
<feColorMatrix in="SourceAlpha" type="matrix" values="0 0 0 0 0 0 0 0 0 0 0 0 0 0 0 0 0 0 127 0" result="hardAlpha"/>
<feOffset dy="1"/>
<feGaussianBlur stdDeviation="2.85"/>
<feComposite in2="hardAlpha" operator="out"/>
<feColorMatrix type="matrix" values="0 0 0 0 0 0 0 0 0 0 0 0 0 0 0 0 0 0 0.6 0"/>
<feBlend mode="normal" in2="BackgroundImageFix" result="effect1_dropShadow_413_278"/>
<feBlend mode="normal" in="SourceGraphic" in2="effect1_dropShadow_413_278" result="shape"/>
</filter>
<linearGradient id="paint0_linear_413_278" x1="196.5" y1="0" x2="196.5" y2="852" gradientUnits="userSpaceOnUse">
<stop offset="0.269231" stop-color="#F7F8FC"/>
<stop offset="1" stop-color="#E0E6EE"/>
</linearGradient>
<linearGradient id="paint1_linear_413_278" x1="335.538" y1="60.5049" x2="4363.97" y2="4091.27" gradientUnits="userSpaceOnUse">
<stop stop-color="#E0FF60"/>
<stop offset="1" stop-color="#CFFF0F"/>
</linearGradient>
<clipPath id="clip0_413_278">
<rect width="393" height="852" rx="20" fill="white"/>
</clipPath>
</defs>
</svg>
