<svg width="379" height="159" viewBox="0 0 379 159" fill="none" xmlns="http://www.w3.org/2000/svg">
<g filter="url(#filter0_d_417_340)">
<g clip-path="url(#clip0_417_340)">
<path d="M11 31C11 19.9543 19.9543 11 31 11H348C359.046 11 368 19.9543 368 31V128C368 139.046 359.046 148 348 148H31C19.9543 148 11 139.046 11 128V31Z" fill="white"/>
<g filter="url(#filter1_d_417_340)">
<path d="M147.5 106.255H53.5C43.0066 106.255 34.5 113.151 34.5 121.657C34.5 130.164 43.0066 137.06 53.5 137.06H147.5C157.993 137.06 166.5 130.164 166.5 121.657C166.5 113.151 157.993 106.255 147.5 106.255Z" fill="#D7FF35"/>
<path d="M65.5374 124.089C65.5374 121.982 65.5374 119.884 65.5374 117.777C62.5214 117.777 59.4924 117.777 56.4634 117.777C56.4634 119.884 56.4634 121.982 56.4634 124.089C56.0214 124.089 55.5924 124.089 55.1504 124.089C55.1504 121.634 55.1504 119.178 55.1504 116.712C59.0504 116.712 62.9504 116.712 66.8504 116.712C66.8504 119.168 66.8504 121.634 66.8504 124.089C66.4214 124.089 65.9794 124.089 65.5374 124.089ZM69.4634 117.745V119.884H77.2764C77.3674 119.884 77.4584 119.874 77.5364 119.863C78.1994 119.737 78.6544 119.242 78.5764 118.715C78.4984 118.156 77.9394 117.745 77.2504 117.745H69.4634ZM77.2244 120.938H69.4634V124.089H68.1504V116.712H77.2634C78.5894 116.712 79.6944 117.534 79.8374 118.599C79.9934 119.737 79.0054 120.759 77.6144 120.917C77.4844 120.928 77.3544 120.938 77.2244 120.938ZM82.3594 124.089H81.1504V116.712H82.3984V122.688L91.6154 116.712H92.8504V124.089H91.6024V118.093L82.3594 124.089ZM94.1504 116.712C94.5794 116.712 94.9954 116.712 95.4244 116.712C95.4244 117.745 95.4244 118.778 95.4244 119.811C98.4794 119.811 101.508 119.811 104.55 119.811C104.55 118.788 104.55 117.756 104.55 116.723C104.992 116.723 105.408 116.723 105.837 116.723C105.837 119.168 105.837 121.623 105.837 124.079C105.421 124.079 104.992 124.079 104.563 124.079C104.563 123.025 104.563 121.961 104.563 120.886C101.508 120.886 98.4794 120.886 95.4374 120.886C95.4374 121.961 95.4374 123.014 95.4374 124.089C94.9954 124.089 94.5794 124.089 94.1504 124.089C94.1504 121.634 94.1504 119.168 94.1504 116.712ZM117.589 119.884V117.745H117.524C114.95 117.745 112.35 117.745 109.776 117.745C109.685 117.745 109.594 117.756 109.516 117.777C108.853 117.893 108.411 118.399 108.489 118.915C108.567 119.484 109.113 119.884 109.802 119.884C112.35 119.884 114.937 119.884 117.485 119.884H117.589ZM118.863 116.712V124.089H117.55V120.938H117.446C116.588 120.938 115.73 120.938 114.885 120.938C114.82 120.938 114.768 120.949 114.716 120.98C113.481 121.739 112.259 122.498 111.011 123.257C110.088 123.805 109.035 124.079 107.878 124.089C107.644 124.089 107.41 124.089 107.163 124.089V123.088C108.424 123.088 109.555 122.804 110.569 122.192C111.232 121.792 111.908 121.391 112.571 120.991C112.597 120.98 112.61 120.97 112.662 120.938H112.545C111.622 120.938 110.686 120.938 109.776 120.928C108.762 120.917 107.995 120.559 107.488 119.842C106.799 118.841 107.254 117.545 108.489 116.986C108.879 116.807 109.308 116.712 109.776 116.712C112.792 116.712 115.847 116.712 118.863 116.712ZM131.85 116.712C131.85 117.071 131.85 117.418 131.85 117.777C130.134 117.777 128.405 117.777 126.676 117.777C126.676 119.884 126.676 121.982 126.676 124.089C126.247 124.089 125.818 124.089 125.389 124.089C125.389 121.992 125.389 119.884 125.389 117.777C123.634 117.777 121.892 117.777 120.15 117.777C120.15 117.418 120.15 117.071 120.15 116.712C124.037 116.712 127.95 116.712 131.85 116.712ZM134.476 120.928V122.993H134.554C136.257 122.993 140.534 122.993 142.224 122.993C142.315 122.993 142.406 122.983 142.497 122.962C143.121 122.846 143.55 122.372 143.485 121.866C143.407 121.318 142.874 120.928 142.198 120.928C140.521 120.928 136.27 120.928 134.58 120.928H134.476ZM133.163 116.712H134.476V119.863H134.593C136.283 119.863 140.534 119.863 142.224 119.863C143.537 119.863 144.629 120.633 144.811 121.687C145.019 122.856 143.966 123.952 142.51 124.079C142.406 124.079 142.302 124.089 142.198 124.089C140.079 124.089 135.399 124.089 133.28 124.089H133.163V116.712Z" fill="black"/>
<path d="M325.5 106.255H231.5C221.007 106.255 212.5 113.151 212.5 121.657C212.5 130.164 221.007 137.06 231.5 137.06H325.5C335.993 137.06 344.5 130.164 344.5 121.657C344.5 113.151 335.993 106.255 325.5 106.255Z" fill="#FF3538"/>
<path d="M223.075 123.067H228.99C229.861 123.056 230.563 122.487 230.563 121.781V119.031C230.563 118.472 229.861 117.745 228.99 117.745H223.049C222.165 117.745 221.463 118.472 221.463 119.041V121.76C221.463 122.487 222.165 123.067 223.075 123.067ZM228.665 124.1H223.348C221.593 124.1 220.15 122.951 220.15 121.528V119.294C220.15 117.871 221.593 116.712 223.335 116.712H228.652C230.42 116.712 231.837 117.871 231.837 119.294C231.85 120.032 231.85 120.78 231.85 121.518C231.837 122.94 230.42 124.1 228.665 124.1ZM244.85 116.712C244.85 117.071 244.85 117.418 244.85 117.777C243.134 117.777 241.405 117.777 239.676 117.777C239.676 119.884 239.676 121.981 239.676 124.089C239.247 124.089 238.818 124.089 238.389 124.089C238.389 121.992 238.389 119.884 238.389 117.777C236.634 117.777 234.892 117.777 233.15 117.777C233.15 117.418 233.15 117.071 233.15 116.712C237.037 116.712 240.95 116.712 244.85 116.712ZM247.489 120.938C247.489 121.992 247.489 123.046 247.489 124.089C247.034 124.089 246.605 124.089 246.163 124.089C246.163 121.644 246.163 119.178 246.163 116.712C246.384 116.712 246.605 116.712 246.813 116.712C247.034 116.712 247.242 116.712 247.489 116.712C247.489 117.766 247.489 118.83 247.489 119.884C247.567 119.895 247.619 119.895 247.671 119.895C248.048 119.895 248.412 119.895 248.776 119.895C248.919 119.905 249.023 119.874 249.127 119.821C250.635 119.041 252.143 118.272 253.638 117.503C254.652 116.976 255.757 116.702 256.966 116.712C257.252 116.712 257.551 116.712 257.863 116.712C257.863 117.06 257.863 117.397 257.863 117.756C257.785 117.756 257.707 117.756 257.642 117.756C257.356 117.766 257.057 117.756 256.758 117.766C256.043 117.787 255.38 117.945 254.769 118.251C253.352 118.946 251.935 119.663 250.518 120.38C250.492 120.39 250.466 120.411 250.427 120.432C250.492 120.464 250.544 120.496 250.596 120.517C251.883 121.159 253.17 121.792 254.444 122.424C255.302 122.856 256.238 123.067 257.239 123.077C257.434 123.088 257.668 123.077 257.863 123.077V124.089H256.368C255.549 124.036 254.561 123.784 253.859 123.425C252.299 122.635 250.752 121.834 249.192 121.033C249.049 120.959 248.893 120.928 248.724 120.928C248.36 120.938 247.996 120.928 247.632 120.928C247.593 120.928 247.554 120.938 247.489 120.938ZM270.863 124.079C270.46 124.079 270.057 124.079 269.628 124.079C269.628 123.025 269.628 121.971 269.628 120.928C269.628 119.884 269.628 118.83 269.628 117.777C267.899 117.777 266.079 117.777 264.35 117.777C264.35 117.85 264.35 117.914 264.35 117.977C264.35 118.957 264.337 119.937 264.35 120.917C264.363 122.656 262.686 124.005 260.593 124.089C260.151 124.1 259.709 124.089 259.267 124.089C259.241 124.089 259.202 124.089 259.163 124.089V123.046C259.241 123.046 259.306 123.046 259.384 123.046C259.761 123.046 260.151 123.046 260.528 123.035C261.971 123.014 262.998 122.045 262.998 120.917C262.998 119.61 262.998 118.304 262.998 116.997V116.712C265.585 116.712 268.289 116.712 270.863 116.712C270.863 119.168 270.863 121.623 270.863 124.079ZM275.1 123.067H281.015C281.886 123.056 282.588 122.487 282.588 121.781V119.031C282.588 118.472 281.886 117.745 281.015 117.745H275.074C274.19 117.745 273.488 118.472 273.488 119.041V121.76C273.488 122.487 274.19 123.067 275.1 123.067ZM280.69 124.1H275.373C273.618 124.1 272.175 122.951 272.175 121.528V119.294C272.175 117.871 273.618 116.712 275.36 116.712H280.677C282.445 116.712 283.862 117.871 283.862 119.294C283.875 120.032 283.875 120.78 283.875 121.518C283.862 122.94 282.445 124.1 280.69 124.1ZM285.175 116.712C285.604 116.712 286.02 116.712 286.449 116.712C286.449 117.745 286.449 118.778 286.449 119.811C289.504 119.811 292.533 119.811 295.575 119.811C295.575 118.788 295.575 117.756 295.575 116.723C296.017 116.723 296.433 116.723 296.862 116.723C296.862 119.168 296.862 121.623 296.862 124.079C296.446 124.079 296.017 124.079 295.588 124.079C295.588 123.025 295.588 121.96 295.588 120.885C292.533 120.885 289.504 120.885 286.462 120.885C286.462 121.96 286.462 123.014 286.462 124.089C286.02 124.089 285.604 124.089 285.175 124.089C285.175 121.634 285.175 119.168 285.175 116.712ZM299.384 124.089H298.175V116.712H299.423V122.688L308.64 116.712H309.875V124.089H308.627V118.093L299.384 124.089ZM322.875 116.712C322.875 117.071 322.875 117.418 322.875 117.777C321.159 117.777 319.43 117.777 317.701 117.777C317.701 119.884 317.701 121.981 317.701 124.089C317.272 124.089 316.843 124.089 316.414 124.089C316.414 121.992 316.414 119.884 316.414 117.777C314.659 117.777 312.917 117.777 311.175 117.777C311.175 117.418 311.175 117.071 311.175 116.712C315.062 116.712 318.975 116.712 322.875 116.712ZM325.501 120.928V122.993H325.579C327.282 122.993 331.559 122.993 333.249 122.993C333.34 122.993 333.431 122.983 333.522 122.962C334.146 122.846 334.575 122.371 334.51 121.866C334.432 121.318 333.899 120.928 333.223 120.928C331.546 120.928 327.295 120.928 325.605 120.928H325.501ZM324.188 116.712H325.501V119.863H325.618C327.308 119.863 331.559 119.863 333.249 119.863C334.562 119.863 335.654 120.633 335.836 121.686C336.044 122.856 334.991 123.952 333.535 124.079C333.431 124.079 333.327 124.089 333.223 124.089C331.104 124.089 326.424 124.089 324.305 124.089H324.188V116.712Z" fill="black"/>
<path d="M48 82C64.5685 82 78 68.5686 78 52C78 35.4315 64.5685 22 48 22C31.4315 22 18 35.4315 18 52C18 68.5686 31.4315 82 48 82Z" fill="#CFFF0F"/>
<path d="M48 42.2504C49.3924 42.2504 50.7277 42.8035 51.7123 43.788C52.6969 44.7727 53.25 46.108 53.25 47.5004C53.25 48.8928 52.6969 50.2281 51.7123 51.2127C50.7277 52.1972 49.3924 52.7504 48 52.7504C46.6076 52.7504 45.2722 52.1972 44.2877 51.2127C43.3031 50.2281 42.75 48.8928 42.75 47.5004C42.75 46.108 43.3031 44.7727 44.2877 43.788C45.2722 42.8035 46.6076 42.2504 48 42.2504ZM37.5 63.2504C37.5 60.0704 42.24 58.0004 48 58.0004C53.76 58.0004 58.5 60.0704 58.5 63.2504V65.5004H37.5V63.2504Z" fill="black"/>
<path d="M102.214 58C101.921 57.9483 101.612 57.9225 101.319 57.832C99.8375 57.3797 99.0072 56.3976 99.0072 55.1571C99.0072 54.162 98.991 53.167 99.0072 52.172C99.0235 50.8668 99.7724 49.9105 101.189 49.3032C101.726 49.0706 102.312 48.9543 102.931 48.9543C105.177 48.9543 107.44 48.9543 109.703 48.9543C111.64 48.9672 113.301 50.1302 113.577 51.6551C113.594 51.7584 113.626 51.8748 113.626 51.9781C113.626 52.2495 113.626 52.5338 113.626 52.8181C113.073 52.8181 112.519 52.8181 111.949 52.8181C111.949 52.7793 111.949 52.7406 111.949 52.7018C111.949 52.34 111.966 51.9781 111.917 51.6163C111.835 50.841 110.973 50.2465 109.996 50.2465C109.41 50.2465 108.807 50.2465 108.221 50.2465C106.366 50.2465 104.51 50.2465 102.654 50.2465C101.612 50.2465 100.814 50.7763 100.635 51.5905C100.603 51.7584 100.619 51.9394 100.603 52.1074C100.603 53.1024 100.586 54.0974 100.586 55.0924C100.586 55.997 101.465 56.6948 102.589 56.6948C105.161 56.6948 107.733 56.6948 110.305 56.6948C111.217 56.6948 111.901 56.165 111.949 55.4414C111.949 55.4414 111.949 55.4284 111.966 55.4155C112.503 55.4155 113.056 55.4155 113.642 55.4155C113.61 55.6093 113.594 55.8032 113.545 55.9841C113.235 57.0567 112.096 57.8579 110.728 57.9871C110.696 57.9871 110.68 58 110.647 58C107.831 58 105.014 58 102.214 58ZM116.947 52.8439H128.31V51.8231C128.31 50.9314 127.415 50.2336 126.291 50.2336H118.949C117.826 50.2336 116.947 50.9314 116.947 51.836V52.8439ZM129.954 58H118.51C118.233 57.9483 117.924 57.9225 117.647 57.832C116.133 57.3797 115.303 56.4235 115.303 55.1571C115.303 54.162 115.287 53.1541 115.303 52.159C115.319 50.8668 116.068 49.9105 117.501 49.3032C118.038 49.0706 118.608 48.9672 119.21 48.9543H126.015C127.952 48.9672 129.629 50.1302 129.906 51.6551C129.922 51.7326 129.938 51.8101 129.954 51.8877V54.175C129.531 54.175 129.108 54.162 128.685 54.162C126.487 54.1491 124.322 54.1362 122.124 54.1362C120.643 54.1362 119.145 54.1491 117.68 54.162C117.436 54.1749 117.191 54.162 116.947 54.162V55.1054C116.947 56.0358 117.826 56.7336 118.982 56.7336H129.954V58ZM133.21 50.2207V52.8439H142.994C143.108 52.8439 143.222 52.831 143.32 52.8181C144.15 52.663 144.72 52.0557 144.622 51.4095C144.524 50.7247 143.824 50.2207 142.962 50.2207H133.21ZM142.929 54.1362H133.21V58H131.566V48.9543H142.978C144.638 48.9543 146.022 49.9622 146.201 51.2674C146.397 52.663 145.159 53.9165 143.417 54.1103C143.255 54.1233 143.092 54.1362 142.929 54.1362ZM162.481 48.9543C162.481 50.2465 162.481 51.5258 162.481 52.8052C161.96 52.8052 161.455 52.8052 160.901 52.8052C160.901 52.5338 160.901 52.2495 160.901 51.9781C160.901 51.6938 160.901 51.4095 160.901 51.1252C160.901 50.841 160.901 50.5567 160.901 50.2594C157.108 50.2594 153.299 50.2594 149.49 50.2594C149.49 50.828 149.49 51.3966 149.49 51.9652C149.49 52.2495 149.49 52.5338 149.49 52.8181C149.49 53.1153 149.49 53.3996 149.49 53.6968C149.49 53.9811 149.49 54.2654 149.49 54.5497C149.49 54.834 149.49 55.1312 149.49 55.4155C149.49 55.6998 149.49 55.9841 149.49 56.2684C149.49 56.5527 149.49 56.8499 149.49 57.1342C149.49 57.4185 149.49 57.7028 149.49 58C148.952 58 148.366 58 147.845 58V48.9543C152.697 48.9543 157.629 48.9543 162.481 48.9543ZM165.785 52.8439H177.148V51.8231C177.148 50.9314 176.253 50.2336 175.13 50.2336H167.788C166.664 50.2336 165.785 50.9314 165.785 51.836V52.8439ZM178.793 58H167.348C167.071 57.9483 166.762 57.9225 166.485 57.832C164.971 57.3797 164.141 56.4235 164.141 55.1571C164.141 54.162 164.125 53.1541 164.141 52.159C164.157 50.8668 164.906 49.9105 166.339 49.3032C166.876 49.0706 167.446 48.9672 168.048 48.9543H174.853C176.79 48.9672 178.467 50.1302 178.744 51.6551C178.76 51.7326 178.776 51.8101 178.793 51.8877V54.175C178.369 54.175 177.946 54.162 177.523 54.162C175.325 54.1491 173.16 54.1362 170.962 54.1362C169.481 54.1362 167.983 54.1491 166.518 54.162C166.274 54.1749 166.029 54.162 165.785 54.162V55.1054C165.785 56.0358 166.664 56.7336 167.82 56.7336H178.793V58ZM190.595 45C190.872 45.3748 191.132 45.7495 191.409 46.1372C189.374 47.0676 187.339 48.0109 185.272 48.9543C184.995 48.5666 184.718 48.2048 184.441 47.8171C184.539 47.7783 184.621 47.7396 184.718 47.7008C186.59 46.835 188.462 45.9821 190.335 45.1163C190.4 45.0905 190.481 45.0388 190.546 45C190.562 45 190.579 45 190.595 45ZM181.918 57.9871L180.404 57.9742V48.9414H181.983V56.2684L193.525 48.9414H195.056V57.9742L193.493 57.9871L193.509 50.6342L181.918 57.9871ZM214.58 58C214.287 57.9483 213.977 57.9225 213.684 57.832C212.203 57.3797 211.373 56.3976 211.373 55.1571C211.373 54.162 211.356 53.167 211.373 52.172C211.389 50.8668 212.138 49.9105 213.554 49.3032C214.091 49.0706 214.677 48.9543 215.296 48.9543C217.542 48.9543 219.805 48.9543 222.068 48.9543C224.005 48.9672 225.666 50.1302 225.943 51.6551C225.959 51.7584 225.991 51.8748 225.991 51.9781C225.991 52.2495 225.991 52.5338 225.991 52.8181C225.438 52.8181 224.884 52.8181 224.315 52.8181C224.315 52.7793 224.315 52.7406 224.315 52.7018C224.315 52.34 224.331 51.9781 224.282 51.6163C224.201 50.841 223.338 50.2465 222.361 50.2465C221.775 50.2465 221.173 50.2465 220.587 50.2465C218.731 50.2465 216.875 50.2465 215.019 50.2465C213.977 50.2465 213.18 50.7763 213.001 51.5905C212.968 51.7584 212.984 51.9394 212.968 52.1074C212.968 53.1024 212.952 54.0974 212.952 55.0924C212.952 55.997 213.831 56.6948 214.954 56.6948C217.526 56.6948 220.098 56.6948 222.67 56.6948C223.582 56.6948 224.266 56.165 224.315 55.4414C224.315 55.4414 224.315 55.4284 224.331 55.4155C224.868 55.4155 225.422 55.4155 226.008 55.4155C225.975 55.6093 225.959 55.8032 225.91 55.9841C225.601 57.0567 224.461 57.8579 223.094 57.9871C223.061 57.9871 223.045 58 223.012 58C220.196 58 217.38 58 214.58 58ZM240.659 58C240.659 55.4155 240.659 52.8439 240.659 50.2594C236.882 50.2594 233.089 50.2594 229.296 50.2594C229.296 52.8439 229.296 55.4155 229.296 58C228.743 58 228.205 58 227.652 58C227.652 54.9891 227.652 51.9781 227.652 48.9543C232.536 48.9543 237.42 48.9543 242.303 48.9543C242.303 51.9652 242.303 54.9891 242.303 58C241.766 58 241.213 58 240.659 58ZM245.576 50.2207V52.8439H255.359C255.473 52.8439 255.587 52.831 255.685 52.8181C256.515 52.663 257.085 52.0557 256.987 51.4095C256.89 50.7247 256.19 50.2207 255.327 50.2207H245.576ZM255.294 54.1362H245.576V58H243.931V48.9543H255.343C257.004 48.9543 258.387 49.9622 258.567 51.2674C258.762 52.663 257.525 53.9165 255.783 54.1103C255.62 54.1233 255.457 54.1362 255.294 54.1362ZM261.725 58H260.211V48.9543H261.774V56.2813L273.316 48.9543H274.862V58H273.299V50.6471L261.725 58ZM276.49 48.9543C277.027 48.9543 277.548 48.9543 278.085 48.9543C278.085 50.2207 278.085 51.4871 278.085 52.7535C281.911 52.7535 285.704 52.7535 289.514 52.7535C289.514 51.5 289.514 50.2336 289.514 48.9672C290.067 48.9672 290.588 48.9672 291.125 48.9672C291.125 51.9652 291.125 54.9761 291.125 57.9871C290.604 57.9871 290.067 57.9871 289.53 57.9871C289.53 56.6948 289.53 55.3897 289.53 54.0716C285.704 54.0716 281.911 54.0716 278.102 54.0716C278.102 55.3897 278.102 56.6819 278.102 58C277.548 58 277.027 58 276.49 58C276.49 54.9891 276.49 51.9652 276.49 48.9543ZM307.421 48.9543C307.421 49.3936 307.421 49.8201 307.421 50.2594C305.272 50.2594 303.107 50.2594 300.942 50.2594C300.942 52.8439 300.942 55.4155 300.942 58C300.405 58 299.867 58 299.33 58C299.33 55.4284 299.33 52.8439 299.33 50.2594C297.132 50.2594 294.951 50.2594 292.77 50.2594C292.77 49.8201 292.77 49.3936 292.77 48.9543C297.637 48.9543 302.537 48.9543 307.421 48.9543ZM310.726 52.8439H322.089V51.8231C322.089 50.9314 321.193 50.2336 320.07 50.2336H312.728C311.605 50.2336 310.726 50.9314 310.726 51.836V52.8439ZM323.733 58H312.289C312.012 57.9483 311.702 57.9225 311.426 57.832C309.912 57.3797 309.081 56.4235 309.081 55.1571C309.081 54.162 309.065 53.1541 309.081 52.159C309.098 50.8668 309.847 49.9105 311.279 49.3032C311.816 49.0706 312.386 48.9672 312.989 48.9543H319.793C321.731 48.9672 323.407 50.1302 323.684 51.6551C323.7 51.7326 323.717 51.8101 323.733 51.8877V54.175C323.31 54.175 322.886 54.162 322.463 54.162C320.265 54.1491 318.1 54.1362 315.903 54.1362C314.421 54.1362 312.923 54.1491 311.458 54.162C311.214 54.1749 310.97 54.162 310.726 54.162V55.1054C310.726 56.0358 311.605 56.7336 312.761 56.7336H323.733V58ZM326.989 50.2207V52.8439H336.773C336.887 52.8439 337.001 52.831 337.098 52.8181C337.929 52.663 338.498 52.0557 338.401 51.4095C338.303 50.7247 337.603 50.2207 336.74 50.2207H326.989ZM336.708 54.1362H326.989V58H325.345V48.9543H336.756C338.417 48.9543 339.801 49.9622 339.98 51.2674C340.175 52.663 338.938 53.9165 337.196 54.1103C337.033 54.1233 336.87 54.1362 336.708 54.1362Z" fill="#111827"/>
</g>
</g>
<path d="M31 11.5H348C358.77 11.5 367.5 20.2304 367.5 31V128C367.5 138.77 358.77 147.5 348 147.5H31C20.2304 147.5 11.5 138.77 11.5 128V31C11.5 20.3986 19.96 11.7736 30.4971 11.5068L31 11.5Z" stroke="#7B7B7B"/>
</g>
<defs>
<filter id="filter0_d_417_340" x="0.6" y="0.6" width="377.8" height="157.8" filterUnits="userSpaceOnUse" color-interpolation-filters="sRGB">
<feFlood flood-opacity="0" result="BackgroundImageFix"/>
<feColorMatrix in="SourceAlpha" type="matrix" values="0 0 0 0 0 0 0 0 0 0 0 0 0 0 0 0 0 0 127 0" result="hardAlpha"/>
<feOffset/>
<feGaussianBlur stdDeviation="5.2"/>
<feComposite in2="hardAlpha" operator="out"/>
<feColorMatrix type="matrix" values="0 0 0 0 0 0 0 0 0 0 0 0 0 0 0 0 0 0 0.17 0"/>
<feBlend mode="normal" in2="BackgroundImageFix" result="effect1_dropShadow_417_340"/>
<feBlend mode="normal" in="SourceGraphic" in2="effect1_dropShadow_417_340" result="shape"/>
</filter>
<filter id="filter1_d_417_340" x="7.6" y="11.6" width="347.3" height="135.86" filterUnits="userSpaceOnUse" color-interpolation-filters="sRGB">
<feFlood flood-opacity="0" result="BackgroundImageFix"/>
<feColorMatrix in="SourceAlpha" type="matrix" values="0 0 0 0 0 0 0 0 0 0 0 0 0 0 0 0 0 0 127 0" result="hardAlpha"/>
<feOffset/>
<feGaussianBlur stdDeviation="5.2"/>
<feComposite in2="hardAlpha" operator="out"/>
<feColorMatrix type="matrix" values="0 0 0 0 0 0 0 0 0 0 0 0 0 0 0 0 0 0 0.17 0"/>
<feBlend mode="normal" in2="BackgroundImageFix" result="effect1_dropShadow_417_340"/>
<feBlend mode="normal" in="SourceGraphic" in2="effect1_dropShadow_417_340" result="shape"/>
</filter>
<clipPath id="clip0_417_340">
<path d="M11 31C11 19.9543 19.9543 11 31 11H348C359.046 11 368 19.9543 368 31V128C368 139.046 359.046 148 348 148H31C19.9543 148 11 139.046 11 128V31Z" fill="white"/>
</clipPath>
</defs>
</svg>
