<svg width="48" height="48" viewBox="0 0 48 48" fill="none" xmlns="http://www.w3.org/2000/svg">
<rect x="0.5" y="0.5" width="47" height="47" rx="23.5" fill="white"/>
<rect x="0.5" y="0.5" width="47" height="47" rx="23.5" stroke="black"/>
<path d="M20.6846 8.09641C21.1284 8.32457 21.3252 8.70254 21.4737 9.16217C21.5445 9.42188 21.6093 9.6825 21.6724 9.94424C21.697 10.0433 21.7216 10.1423 21.747 10.2443C21.8139 10.5144 21.88 10.7846 21.9458 11.0549C22.0149 11.3383 22.0849 11.6215 22.1549 11.9048C22.272 12.38 22.3885 12.8553 22.5046 13.3308C22.6388 13.8803 22.7738 14.4296 22.9093 14.9787C23.0538 15.5642 23.1977 16.1498 23.3414 16.7355C23.3828 16.904 23.4243 17.0725 23.4658 17.241C23.5431 17.5548 23.6197 17.8687 23.6962 18.1826C23.7307 18.3225 23.7307 18.3225 23.766 18.4653C23.7867 18.5507 23.8074 18.6362 23.8287 18.7242C23.8469 18.7983 23.865 18.8725 23.8837 18.9489C23.9221 19.1471 23.9221 19.1471 23.9221 19.4761C23.9757 19.4761 24.0293 19.4761 24.0846 19.4761C24.0933 19.3875 24.102 19.299 24.111 19.2077C24.1685 18.7457 24.2813 18.2991 24.3922 17.8477C24.4269 17.7048 24.4269 17.7048 24.4623 17.5589C24.5254 17.2992 24.5889 17.0395 24.6527 16.7799C24.6925 16.6174 24.7323 16.4548 24.7721 16.2922C24.8969 15.7823 25.0219 15.2725 25.1474 14.7628C25.2918 14.1765 25.4352 13.5899 25.5777 13.0031C25.6883 12.548 25.7997 12.0931 25.9119 11.6384C25.9787 11.3675 26.0451 11.0965 26.1106 10.8252C26.1839 10.5226 26.2587 10.2203 26.3338 9.91816C26.355 9.82926 26.3762 9.74037 26.398 9.64878C26.5477 9.05552 26.7264 8.50736 27.2215 8.12533C27.722 7.97515 28.194 7.94611 28.6682 8.18187C28.9515 8.4408 29.1607 8.66038 29.2824 9.0301C29.2928 9.25003 29.286 9.46775 29.2824 9.68811C29.3407 9.68429 29.399 9.68048 29.4591 9.67654C31.4493 9.60626 33.3211 10.4318 34.8051 11.7444C34.9729 11.9078 35.1363 12.0745 35.2984 12.2437C35.4515 12.3991 35.61 12.5424 35.7746 12.6852C36.0134 12.8926 36.2353 13.1098 36.4548 13.338C37.6724 14.5733 39.0242 15.3712 40.7796 15.3943C41.4326 15.39 42.0437 15.2847 42.6491 15.0277C43.0338 14.8798 43.3762 14.9097 43.7541 15.0448C44.0696 15.2578 44.2982 15.5093 44.4698 15.857C44.6028 16.8056 44.2677 17.7366 44.0222 18.6394C43.9757 18.8137 43.9293 18.988 43.8831 19.1624C43.7614 19.6197 43.6381 20.0767 43.5146 20.5336C43.4148 20.9038 43.3162 21.2742 43.2175 21.6447C43.0987 22.091 42.9793 22.5372 42.8598 22.9833C42.8263 23.1084 42.8263 23.1084 42.7922 23.2359C42.6502 23.7655 42.506 24.2945 42.3582 24.8224C42.3398 24.8885 42.3214 24.9545 42.3024 25.0225C42.2508 25.2053 42.1978 25.3876 42.1441 25.5697C42.1 25.7209 42.1 25.7209 42.055 25.8751C41.8801 26.3228 41.6541 26.5738 41.2212 26.7656C39.3754 27.5604 37.2152 27.4818 35.3632 26.7587C33.6598 26.0536 32.3887 24.7667 31.1097 23.4651C29.7086 22.0467 28.1921 21.6119 26.2774 21.5324C26.2697 21.5824 26.262 21.6325 26.254 21.684C26.1762 22.1529 26.0743 22.6108 25.9513 23.0695C25.9366 23.1249 25.922 23.1804 25.9069 23.2376C25.8462 23.4674 25.7854 23.6971 25.7217 23.9261C25.6746 24.0959 25.6301 24.2663 25.5858 24.4369C25.5452 24.5865 25.5452 24.5865 25.5039 24.7392C25.364 25.5292 25.7379 26.4467 25.9307 27.2051C25.9613 27.3263 25.9919 27.4476 26.0224 27.5689C26.0877 27.8284 26.1533 28.0878 26.2189 28.3471C26.3227 28.7578 26.4259 29.1685 26.529 29.5794C26.5644 29.7205 26.5998 29.8616 26.6352 30.0027C26.6529 30.0733 26.6706 30.144 26.6889 30.2167C26.9286 31.1718 27.1688 32.1268 27.4104 33.0814C27.5738 33.7273 27.7363 34.3734 27.8978 35.0197C27.9832 35.3611 28.069 35.7023 28.1559 36.0432C28.2376 36.3637 28.3181 36.6844 28.3977 37.0053C28.427 37.1226 28.4567 37.2398 28.487 37.3569C28.8391 38.7238 28.8391 38.7238 28.4956 39.4067C28.2223 39.7284 28.0197 39.9268 27.5924 39.9912C27.1385 40.0124 26.7495 40.0068 26.4003 39.6868C26.0137 39.2425 25.8798 38.5939 25.7442 38.0318C25.7259 37.9584 25.7077 37.885 25.6888 37.8094C25.6293 37.5695 25.5707 37.3294 25.5122 37.0892C25.4708 36.9214 25.4294 36.7536 25.388 36.5858C25.3015 36.2354 25.2156 35.885 25.13 35.5344C25.0202 35.085 24.9094 34.6358 24.7984 34.1867C24.713 33.8408 24.6279 33.4948 24.543 33.1488C24.5023 32.983 24.4615 32.8173 24.4206 32.6517C24.3636 32.4206 24.3072 32.1895 24.2509 31.9583C24.2339 31.8899 24.217 31.8215 24.1995 31.751C24.1843 31.688 24.169 31.6249 24.1533 31.5599C24.1399 31.5054 24.1266 31.4509 24.1128 31.3947C24.0846 31.2381 24.0846 31.2381 24.0846 30.9091C24.031 30.9091 23.9774 30.9091 23.9221 30.9091C23.9122 31.0027 23.9023 31.0962 23.892 31.1926C23.8455 31.5677 23.7637 31.9282 23.6728 32.2945C23.6559 32.364 23.639 32.4335 23.6216 32.5051C23.566 32.7331 23.5098 32.9609 23.4536 33.1887C23.4144 33.3482 23.3752 33.5078 23.3361 33.6674C23.2541 34.0012 23.1718 34.3349 23.0893 34.6685C22.984 35.0946 22.8796 35.5209 22.7755 35.9473C22.695 36.2768 22.6138 36.6061 22.5324 36.9353C22.4937 37.0924 22.4552 37.2495 22.4169 37.4066C22.3632 37.627 22.3086 37.8471 22.2538 38.0672C22.2384 38.1312 22.223 38.1952 22.2071 38.2611C21.883 39.5471 21.883 39.5471 21.3388 39.89C20.9614 40.0317 20.5796 40.0161 20.1862 39.9568C19.788 39.7695 19.5727 39.5292 19.374 39.1343C19.2152 38.4173 19.41 37.7816 19.5888 37.0876C19.6215 36.957 19.654 36.8264 19.6865 36.6958C19.7742 36.3441 19.8634 35.9928 19.9529 35.6416C20.0462 35.2746 20.1379 34.9072 20.2298 34.5398C20.4008 33.8568 20.573 33.1742 20.7458 32.4916C21.0306 31.3659 21.3131 30.2395 21.5954 29.1131C21.6903 28.7347 21.7856 28.3564 21.8813 27.9782C21.9407 27.7433 21.9998 27.5083 22.0589 27.2733C22.0988 27.1151 22.139 26.9569 22.1792 26.7988C22.2482 26.5244 22.3145 26.2495 22.379 25.974C22.3985 25.8937 22.4179 25.8135 22.438 25.7309C22.5538 25.1952 22.5265 24.7947 22.3797 24.2698C22.3614 24.1987 22.3432 24.1275 22.3243 24.0542C22.2665 23.83 22.2061 23.6065 22.1455 23.383C22.0861 23.1571 22.0272 22.931 21.9685 22.7049C21.9319 22.5649 21.8949 22.4251 21.8573 22.2855C21.7886 22.028 21.7293 21.8005 21.7293 21.5324C19.9293 21.5741 18.5124 21.958 17.1812 23.2597C17.0735 23.3546 16.9652 23.4489 16.8563 23.5424C16.6014 23.7667 16.3629 24.0036 16.1254 24.2467C15.786 24.5935 15.4376 24.9187 15.0696 25.2337C14.9754 25.3197 14.9754 25.3197 14.8792 25.4075C13.8963 26.2755 12.752 26.8041 11.4961 27.1255C11.4176 27.1456 11.339 27.1658 11.2581 27.1865C9.657 27.5219 7.88113 27.321 6.42514 26.5703C5.94938 26.1472 5.81069 25.5001 5.65656 24.8991C5.63539 24.8189 5.61421 24.7387 5.5924 24.656C5.52308 24.3928 5.45477 24.1294 5.38646 23.8659C5.33821 23.682 5.2899 23.4981 5.24153 23.3141C5.11467 22.8311 4.98864 22.3479 4.8628 21.8646C4.73476 21.3734 4.60597 20.8823 4.47722 20.3913C4.33247 19.8392 4.18779 19.287 4.04373 18.7347C4.02177 18.6506 3.99982 18.5665 3.97721 18.4799C3.93645 18.3237 3.89574 18.1675 3.85508 18.0113C3.77524 17.7054 3.69441 17.4003 3.6064 17.0967C3.46485 16.5821 3.44312 16.054 3.67394 15.5691C4.01819 15.1922 4.27575 14.9739 4.79066 14.9265C5.18885 14.9295 5.53518 15.064 5.9058 15.2012C7.06483 15.6044 8.39072 15.3819 9.49803 14.9191C10.5451 14.394 11.3627 13.5406 12.1721 12.7054C12.401 12.4729 12.6371 12.2555 12.8844 12.0435C12.9933 11.9488 13.0997 11.851 13.2042 11.7512C14.6977 10.3345 16.6975 9.62937 18.7243 9.68811C18.7193 9.58972 18.7143 9.49132 18.7091 9.38995C18.7107 8.92693 18.8686 8.64976 19.171 8.30525C19.5748 7.94741 20.1815 7.94177 20.6846 8.09641ZM14.7101 14.0836C14.472 14.3228 14.2242 14.5517 13.9782 14.7826C13.6815 15.0619 13.3855 15.3416 13.0947 15.6273C11.491 17.1901 9.63242 18.0129 7.39973 18.1241C7.29899 18.1294 7.29899 18.1294 7.19622 18.1348C7.03226 18.1435 6.86829 18.1518 6.70432 18.16C7.22757 20.2489 7.76755 22.3324 8.32864 24.4112C9.77281 24.7928 11.1223 24.5498 12.4431 23.8441C12.8671 23.5734 13.2138 23.2421 13.5683 22.8856C13.7721 22.6837 13.9849 22.4919 14.1965 22.2983C14.4695 22.0465 14.736 21.7903 14.9934 21.5221C16.5822 19.8999 18.4496 19.0745 20.6735 18.8181C20.6233 18.4149 20.5459 18.0342 20.4414 17.6409C20.4263 17.5838 20.4113 17.5268 20.3958 17.468C20.3464 17.2814 20.2966 17.095 20.2468 16.9086C20.2123 16.7785 20.1778 16.6484 20.1434 16.5183C20.053 16.1773 19.9622 15.8365 19.8714 15.4956C19.7786 15.1472 19.6862 14.7987 19.5937 14.4502C19.4126 13.7675 19.231 13.0849 19.0492 12.4024C18.8562 12.4002 18.6632 12.3986 18.4702 12.3973C18.4161 12.3966 18.3621 12.3959 18.3064 12.3952C16.8977 12.3882 15.6782 13.0975 14.7101 14.0836ZM28.9575 12.4024C28.7453 13.1902 28.5334 13.9781 28.3222 14.7662C28.2241 15.1321 28.1258 15.498 28.0272 15.8637C27.9321 16.2167 27.8373 16.5698 27.7428 16.9229C27.7067 17.0577 27.6705 17.1924 27.634 17.327C27.5831 17.5156 27.5326 17.7043 27.4823 17.893C27.4595 17.9766 27.4595 17.9766 27.4363 18.0619C27.3659 18.328 27.3332 18.5392 27.3332 18.8181C27.4277 18.8301 27.5221 18.8422 27.6194 18.8547C30.2528 19.2174 32.0103 20.4864 33.8448 22.3716C34.0492 22.5755 34.2637 22.7658 34.4821 22.9541C34.5867 23.046 34.6889 23.1408 34.788 23.2388C35.8352 24.252 37.2904 24.6351 38.7057 24.6033C39.0492 24.5739 39.3452 24.4992 39.6781 24.4112C39.89 23.6083 40.1018 22.8054 40.3134 22.0025C40.4117 21.6297 40.51 21.2569 40.6084 20.8841C40.7033 20.5247 40.7981 20.1653 40.8928 19.8058C40.929 19.6683 40.9653 19.5309 41.0016 19.3934C41.0522 19.2016 41.1028 19.0098 41.1533 18.8179C41.1685 18.7605 41.1837 18.7031 41.1993 18.644C41.2718 18.4053 41.2718 18.4053 41.3024 18.16C41.1653 18.1554 41.1653 18.1554 41.0254 18.1507C38.2888 18.0399 36.3474 17.0053 34.399 15.1167C34.2187 14.9424 34.0381 14.7683 33.8572 14.5946C33.7417 14.4837 33.6265 14.3724 33.5116 14.2608C32.3847 13.1771 31.138 12.3752 29.5359 12.397C29.48 12.3974 29.4241 12.3977 29.3665 12.3982C29.2302 12.3992 29.0939 12.4007 28.9575 12.4024Z" fill="black"/>
</svg>
